<?xml version="1.0" encoding="utf-8" standalone="no"?>
<!DOCTYPE svg PUBLIC "-//W3C//DTD SVG 1.1//EN"
  "http://www.w3.org/Graphics/SVG/1.1/DTD/svg11.dtd">
<svg xmlns:xlink="http://www.w3.org/1999/xlink" width="460.8pt" height="345.6pt" viewBox="0 0 460.8 345.6" xmlns="http://www.w3.org/2000/svg" version="1.1">
 <metadata>
  <rdf:RDF xmlns:dc="http://purl.org/dc/elements/1.1/" xmlns:cc="http://creativecommons.org/ns#" xmlns:rdf="http://www.w3.org/1999/02/22-rdf-syntax-ns#">
   <cc:Work>
    <dc:type rdf:resource="http://purl.org/dc/dcmitype/StillImage"/>
    <dc:date>2022-10-24T21:31:51.536782</dc:date>
    <dc:format>image/svg+xml</dc:format>
    <dc:creator>
     <cc:Agent>
      <dc:title>Matplotlib v3.6.1, https://matplotlib.org/</dc:title>
     </cc:Agent>
    </dc:creator>
   </cc:Work>
  </rdf:RDF>
 </metadata>
 <defs>
  <style type="text/css">*{stroke-linejoin: round; stroke-linecap: butt}</style>
 </defs>
 <g id="figure_1">
  <g id="patch_1">
   <path d="M 0 345.6 
L 460.8 345.6 
L 460.8 0 
L 0 0 
z
" style="fill: #ffffff"/>
  </g>
  <g id="axes_1">
   <g id="patch_2">
    <path d="M 24.1 160.472 
L 222 160.472 
L 222 54.936 
L 24.1 54.936 
z
" style="fill: #ffffff"/>
   </g>
   <g id="matplotlib.axis_1">
    <g id="xtick_1">
     <g id="line2d_1">
      <defs>
       <path id="m80216fa0e1" d="M 0 0 
L 0 3.5 
" style="stroke: #000000; stroke-width: 0.8"/>
      </defs>
      <g>
       <use xlink:href="#m80216fa0e1" x="24.1" y="160.472" style="stroke: #000000; stroke-width: 0.8"/>
      </g>
     </g>
     <g id="text_1">
      <!-- 0 -->
      <g transform="translate(20.91875 175.070437) scale(0.1 -0.1)">
       <defs>
        <path id="DejaVuSans-30" d="M 2034 4250 
Q 1547 4250 1301 3770 
Q 1056 3291 1056 2328 
Q 1056 1369 1301 889 
Q 1547 409 2034 409 
Q 2525 409 2770 889 
Q 3016 1369 3016 2328 
Q 3016 3291 2770 3770 
Q 2525 4250 2034 4250 
z
M 2034 4750 
Q 2819 4750 3233 4129 
Q 3647 3509 3647 2328 
Q 3647 1150 3233 529 
Q 2819 -91 2034 -91 
Q 1250 -91 836 529 
Q 422 1150 422 2328 
Q 422 3509 836 4129 
Q 1250 4750 2034 4750 
z
" transform="scale(0.015625)"/>
       </defs>
       <use xlink:href="#DejaVuSans-30"/>
      </g>
     </g>
    </g>
    <g id="xtick_2">
     <g id="line2d_2">
      <g>
       <use xlink:href="#m80216fa0e1" x="86.925397" y="160.472" style="stroke: #000000; stroke-width: 0.8"/>
      </g>
     </g>
     <g id="text_2">
      <!-- $t_{1}$ -->
      <g transform="translate(82.575397 175.070437) scale(0.1 -0.1)">
       <defs>
        <path id="DejaVuSans-Oblique-74" d="M 2706 3500 
L 2619 3053 
L 1472 3053 
L 1100 1153 
Q 1081 1047 1072 975 
Q 1063 903 1063 863 
Q 1063 663 1183 572 
Q 1303 481 1569 481 
L 2150 481 
L 2053 0 
L 1503 0 
Q 991 0 739 200 
Q 488 400 488 806 
Q 488 878 497 964 
Q 506 1050 525 1153 
L 897 3053 
L 409 3053 
L 500 3500 
L 978 3500 
L 1172 4494 
L 1747 4494 
L 1556 3500 
L 2706 3500 
z
" transform="scale(0.015625)"/>
        <path id="DejaVuSans-31" d="M 794 531 
L 1825 531 
L 1825 4091 
L 703 3866 
L 703 4441 
L 1819 4666 
L 2450 4666 
L 2450 531 
L 3481 531 
L 3481 0 
L 794 0 
L 794 531 
z
" transform="scale(0.015625)"/>
       </defs>
       <use xlink:href="#DejaVuSans-Oblique-74" transform="translate(0 0.78125)"/>
       <use xlink:href="#DejaVuSans-31" transform="translate(39.208984 -15.625) scale(0.7)"/>
      </g>
     </g>
    </g>
    <g id="xtick_3">
     <g id="line2d_3">
      <g>
       <use xlink:href="#m80216fa0e1" x="181.163492" y="160.472" style="stroke: #000000; stroke-width: 0.8"/>
      </g>
     </g>
     <g id="text_3">
      <!-- $t_{2}$ -->
      <g transform="translate(176.813492 175.070437) scale(0.1 -0.1)">
       <defs>
        <path id="DejaVuSans-32" d="M 1228 531 
L 3431 531 
L 3431 0 
L 469 0 
L 469 531 
Q 828 903 1448 1529 
Q 2069 2156 2228 2338 
Q 2531 2678 2651 2914 
Q 2772 3150 2772 3378 
Q 2772 3750 2511 3984 
Q 2250 4219 1831 4219 
Q 1534 4219 1204 4116 
Q 875 4013 500 3803 
L 500 4441 
Q 881 4594 1212 4672 
Q 1544 4750 1819 4750 
Q 2544 4750 2975 4387 
Q 3406 4025 3406 3419 
Q 3406 3131 3298 2873 
Q 3191 2616 2906 2266 
Q 2828 2175 2409 1742 
Q 1991 1309 1228 531 
z
" transform="scale(0.015625)"/>
       </defs>
       <use xlink:href="#DejaVuSans-Oblique-74" transform="translate(0 0.78125)"/>
       <use xlink:href="#DejaVuSans-32" transform="translate(39.208984 -15.625) scale(0.7)"/>
      </g>
     </g>
    </g>
   </g>
   <g id="matplotlib.axis_2">
    <g id="ytick_1">
     <g id="line2d_4">
      <defs>
       <path id="ma218d185f5" d="M 0 0 
L -3.5 0 
" style="stroke: #000000; stroke-width: 0.8"/>
      </defs>
      <g>
       <use xlink:href="#ma218d185f5" x="24.1" y="160.472" style="stroke: #000000; stroke-width: 0.8"/>
      </g>
     </g>
     <g id="text_4">
      <!-- 0 -->
      <g transform="translate(10.7375 164.271219) scale(0.1 -0.1)">
       <use xlink:href="#DejaVuSans-30"/>
      </g>
     </g>
    </g>
   </g>
   <g id="line2d_5">
    <path d="M 24.1 101.34819 
L 28.627957 105.45581 
L 33.093025 109.205636 
L 37.432316 112.563693 
L 41.70872 115.597133 
L 45.922235 118.31804 
L 50.072862 120.738322 
L 54.1606 122.86971 
L 58.248339 124.750799 
L 62.273189 126.358396 
L 66.235151 127.703876 
L 70.197113 128.814223 
L 74.096187 129.677383 
L 77.99526 130.312815 
L 81.894334 130.72052 
L 85.730519 130.899402 
L 86.925397 130.910095 
L 86.925397 130.910095 
" clip-path="url(#pbf7f934b32)" style="fill: none; stroke: #ff0000; stroke-width: 1.5; stroke-linecap: square"/>
   </g>
   <g id="line2d_6">
    <path d="M 24.1 160.472 
L 28.627957 156.36438 
L 33.093025 152.614554 
L 37.432316 149.256497 
L 41.70872 146.223058 
L 45.922235 143.502151 
L 50.072862 141.081868 
L 54.1606 138.950481 
L 58.248339 137.069392 
L 62.273189 135.461795 
L 66.235151 134.116315 
L 70.197113 133.005967 
L 74.096187 132.142808 
L 77.99526 131.507375 
L 81.894334 131.09967 
L 85.730519 130.920788 
L 86.925397 130.910095 
L 86.925397 130.910095 
" clip-path="url(#pbf7f934b32)" style="fill: none; stroke: #0000ff; stroke-width: 1.5; stroke-linecap: square"/>
   </g>
   <g id="line2d_7">
    <path d="M 86.925397 130.910095 
L 118.338095 130.910095 
L 118.338095 130.910095 
" clip-path="url(#pbf7f934b32)" style="fill: none; stroke: #800080; stroke-width: 1.5; stroke-linecap: square"/>
   </g>
   <g id="line2d_8">
    <path d="M 86.925397 160.472 
L 86.925397 54.936 
" clip-path="url(#pbf7f934b32)" style="fill: none; stroke-dasharray: 1.5,1.5; stroke-dashoffset: 0; stroke: #000000; stroke-width: 1.5"/>
   </g>
   <g id="line2d_9">
    <path d="M 118.338095 59.961524 
L 122.866052 64.069143 
L 127.33112 67.81897 
L 131.670412 71.177027 
L 135.946815 74.210466 
L 140.16033 76.931373 
L 144.310957 79.351655 
L 148.398696 81.483043 
L 152.486434 83.364132 
L 156.511284 84.971729 
L 160.473246 86.317209 
L 164.435208 87.427557 
L 168.334282 88.290716 
L 172.233356 88.926148 
L 176.132429 89.333853 
L 179.968615 89.512735 
L 181.163492 89.523429 
L 181.163492 89.523429 
" clip-path="url(#pbf7f934b32)" style="fill: none; stroke: #ff0000; stroke-width: 1.5; stroke-linecap: square"/>
   </g>
   <g id="line2d_10">
    <path d="M 118.338095 119.085333 
L 122.866052 114.977714 
L 127.33112 111.227888 
L 131.670412 107.86983 
L 135.946815 104.836391 
L 140.16033 102.115484 
L 144.310957 99.695202 
L 148.398696 97.563814 
L 152.486434 95.682725 
L 156.511284 94.075128 
L 160.473246 92.729648 
L 164.435208 91.6193 
L 168.334282 90.756141 
L 172.233356 90.120709 
L 176.132429 89.713004 
L 179.968615 89.534122 
L 181.163492 89.523429 
L 181.163492 89.523429 
" clip-path="url(#pbf7f934b32)" style="fill: none; stroke: #0000ff; stroke-width: 1.5; stroke-linecap: square"/>
   </g>
   <g id="line2d_11">
    <path d="M 181.163492 89.523429 
L 212.57619 89.523429 
L 212.57619 89.523429 
" clip-path="url(#pbf7f934b32)" style="fill: none; stroke: #800080; stroke-width: 1.5; stroke-linecap: square"/>
   </g>
   <g id="line2d_12">
    <path d="M 181.163492 160.472 
L 181.163492 54.936 
" clip-path="url(#pbf7f934b32)" style="fill: none; stroke-dasharray: 1.5,1.5; stroke-dashoffset: 0; stroke: #000000; stroke-width: 1.5"/>
   </g>
   <g id="line2d_13">
    <defs>
     <path id="m7d37b32632" d="M 3 0 
L -3 -3 
L -3 3 
z
" style="stroke: #000000; stroke-linejoin: miter"/>
    </defs>
    <g>
     <use xlink:href="#m7d37b32632" x="222" y="160.472" style="stroke: #000000; stroke-linejoin: miter"/>
    </g>
   </g>
   <g id="line2d_14">
    <defs>
     <path id="m8212750f62" d="M 0 -3 
L -3 3 
L 3 3 
z
" style="stroke: #000000; stroke-linejoin: miter"/>
    </defs>
    <g>
     <use xlink:href="#m8212750f62" x="24.1" y="54.936" style="stroke: #000000; stroke-linejoin: miter"/>
    </g>
   </g>
   <g id="patch_3">
    <path d="M 24.1 160.472 
L 24.1 54.936 
" style="fill: none; stroke: #000000; stroke-width: 0.8; stroke-linejoin: miter; stroke-linecap: square"/>
   </g>
   <g id="patch_4">
    <path d="M 222 160.472 
L 222 54.936 
" style="fill: none"/>
   </g>
   <g id="patch_5">
    <path d="M 24.1 160.472 
L 222 160.472 
" style="fill: none; stroke: #000000; stroke-width: 0.8; stroke-linejoin: miter; stroke-linecap: square"/>
   </g>
   <g id="patch_6">
    <path d="M 24.1 54.936 
L 222 54.936 
" style="fill: none"/>
   </g>
   <g id="text_5">
    <!-- higher pressure, $N_{gas}^L &gt; N_{gas}^R$ -->
    <g transform="translate(40.37 48.936) scale(0.12 -0.12)">
     <defs>
      <path id="DejaVuSans-68" d="M 3513 2113 
L 3513 0 
L 2938 0 
L 2938 2094 
Q 2938 2591 2744 2837 
Q 2550 3084 2163 3084 
Q 1697 3084 1428 2787 
Q 1159 2491 1159 1978 
L 1159 0 
L 581 0 
L 581 4863 
L 1159 4863 
L 1159 2956 
Q 1366 3272 1645 3428 
Q 1925 3584 2291 3584 
Q 2894 3584 3203 3211 
Q 3513 2838 3513 2113 
z
" transform="scale(0.015625)"/>
      <path id="DejaVuSans-69" d="M 603 3500 
L 1178 3500 
L 1178 0 
L 603 0 
L 603 3500 
z
M 603 4863 
L 1178 4863 
L 1178 4134 
L 603 4134 
L 603 4863 
z
" transform="scale(0.015625)"/>
      <path id="DejaVuSans-67" d="M 2906 1791 
Q 2906 2416 2648 2759 
Q 2391 3103 1925 3103 
Q 1463 3103 1205 2759 
Q 947 2416 947 1791 
Q 947 1169 1205 825 
Q 1463 481 1925 481 
Q 2391 481 2648 825 
Q 2906 1169 2906 1791 
z
M 3481 434 
Q 3481 -459 3084 -895 
Q 2688 -1331 1869 -1331 
Q 1566 -1331 1297 -1286 
Q 1028 -1241 775 -1147 
L 775 -588 
Q 1028 -725 1275 -790 
Q 1522 -856 1778 -856 
Q 2344 -856 2625 -561 
Q 2906 -266 2906 331 
L 2906 616 
Q 2728 306 2450 153 
Q 2172 0 1784 0 
Q 1141 0 747 490 
Q 353 981 353 1791 
Q 353 2603 747 3093 
Q 1141 3584 1784 3584 
Q 2172 3584 2450 3431 
Q 2728 3278 2906 2969 
L 2906 3500 
L 3481 3500 
L 3481 434 
z
" transform="scale(0.015625)"/>
      <path id="DejaVuSans-65" d="M 3597 1894 
L 3597 1613 
L 953 1613 
Q 991 1019 1311 708 
Q 1631 397 2203 397 
Q 2534 397 2845 478 
Q 3156 559 3463 722 
L 3463 178 
Q 3153 47 2828 -22 
Q 2503 -91 2169 -91 
Q 1331 -91 842 396 
Q 353 884 353 1716 
Q 353 2575 817 3079 
Q 1281 3584 2069 3584 
Q 2775 3584 3186 3129 
Q 3597 2675 3597 1894 
z
M 3022 2063 
Q 3016 2534 2758 2815 
Q 2500 3097 2075 3097 
Q 1594 3097 1305 2825 
Q 1016 2553 972 2059 
L 3022 2063 
z
" transform="scale(0.015625)"/>
      <path id="DejaVuSans-72" d="M 2631 2963 
Q 2534 3019 2420 3045 
Q 2306 3072 2169 3072 
Q 1681 3072 1420 2755 
Q 1159 2438 1159 1844 
L 1159 0 
L 581 0 
L 581 3500 
L 1159 3500 
L 1159 2956 
Q 1341 3275 1631 3429 
Q 1922 3584 2338 3584 
Q 2397 3584 2469 3576 
Q 2541 3569 2628 3553 
L 2631 2963 
z
" transform="scale(0.015625)"/>
      <path id="DejaVuSans-20" transform="scale(0.015625)"/>
      <path id="DejaVuSans-70" d="M 1159 525 
L 1159 -1331 
L 581 -1331 
L 581 3500 
L 1159 3500 
L 1159 2969 
Q 1341 3281 1617 3432 
Q 1894 3584 2278 3584 
Q 2916 3584 3314 3078 
Q 3713 2572 3713 1747 
Q 3713 922 3314 415 
Q 2916 -91 2278 -91 
Q 1894 -91 1617 61 
Q 1341 213 1159 525 
z
M 3116 1747 
Q 3116 2381 2855 2742 
Q 2594 3103 2138 3103 
Q 1681 3103 1420 2742 
Q 1159 2381 1159 1747 
Q 1159 1113 1420 752 
Q 1681 391 2138 391 
Q 2594 391 2855 752 
Q 3116 1113 3116 1747 
z
" transform="scale(0.015625)"/>
      <path id="DejaVuSans-73" d="M 2834 3397 
L 2834 2853 
Q 2591 2978 2328 3040 
Q 2066 3103 1784 3103 
Q 1356 3103 1142 2972 
Q 928 2841 928 2578 
Q 928 2378 1081 2264 
Q 1234 2150 1697 2047 
L 1894 2003 
Q 2506 1872 2764 1633 
Q 3022 1394 3022 966 
Q 3022 478 2636 193 
Q 2250 -91 1575 -91 
Q 1294 -91 989 -36 
Q 684 19 347 128 
L 347 722 
Q 666 556 975 473 
Q 1284 391 1588 391 
Q 1994 391 2212 530 
Q 2431 669 2431 922 
Q 2431 1156 2273 1281 
Q 2116 1406 1581 1522 
L 1381 1569 
Q 847 1681 609 1914 
Q 372 2147 372 2553 
Q 372 3047 722 3315 
Q 1072 3584 1716 3584 
Q 2034 3584 2315 3537 
Q 2597 3491 2834 3397 
z
" transform="scale(0.015625)"/>
      <path id="DejaVuSans-75" d="M 544 1381 
L 544 3500 
L 1119 3500 
L 1119 1403 
Q 1119 906 1312 657 
Q 1506 409 1894 409 
Q 2359 409 2629 706 
Q 2900 1003 2900 1516 
L 2900 3500 
L 3475 3500 
L 3475 0 
L 2900 0 
L 2900 538 
Q 2691 219 2414 64 
Q 2138 -91 1772 -91 
Q 1169 -91 856 284 
Q 544 659 544 1381 
z
M 1991 3584 
L 1991 3584 
z
" transform="scale(0.015625)"/>
      <path id="DejaVuSans-2c" d="M 750 794 
L 1409 794 
L 1409 256 
L 897 -744 
L 494 -744 
L 750 256 
L 750 794 
z
" transform="scale(0.015625)"/>
      <path id="DejaVuSans-Oblique-4e" d="M 1081 4666 
L 1931 4666 
L 3219 666 
L 4000 4666 
L 4616 4666 
L 3706 0 
L 2853 0 
L 1569 4025 
L 788 0 
L 172 0 
L 1081 4666 
z
" transform="scale(0.015625)"/>
      <path id="DejaVuSans-Oblique-4c" d="M 1075 4666 
L 1709 4666 
L 909 525 
L 3181 525 
L 3078 0 
L 172 0 
L 1075 4666 
z
" transform="scale(0.015625)"/>
      <path id="DejaVuSans-Oblique-67" d="M 3816 3500 
L 3219 434 
Q 3047 -456 2561 -893 
Q 2075 -1331 1253 -1331 
Q 950 -1331 690 -1286 
Q 431 -1241 206 -1147 
L 313 -588 
Q 525 -725 762 -790 
Q 1000 -856 1269 -856 
Q 1816 -856 2167 -557 
Q 2519 -259 2631 300 
L 2681 563 
Q 2441 288 2122 144 
Q 1803 0 1434 0 
Q 903 0 598 351 
Q 294 703 294 1319 
Q 294 1803 478 2267 
Q 663 2731 997 3091 
Q 1219 3328 1514 3456 
Q 1809 3584 2131 3584 
Q 2484 3584 2746 3420 
Q 3009 3256 3138 2956 
L 3238 3500 
L 3816 3500 
z
M 2950 2216 
Q 2950 2641 2750 2872 
Q 2550 3103 2181 3103 
Q 1953 3103 1747 3012 
Q 1541 2922 1394 2759 
Q 1156 2491 1023 2127 
Q 891 1763 891 1375 
Q 891 944 1092 712 
Q 1294 481 1672 481 
Q 2219 481 2584 976 
Q 2950 1472 2950 2216 
z
" transform="scale(0.015625)"/>
      <path id="DejaVuSans-Oblique-61" d="M 3438 1997 
L 3047 0 
L 2472 0 
L 2578 531 
Q 2325 219 2001 64 
Q 1678 -91 1281 -91 
Q 834 -91 548 182 
Q 263 456 263 884 
Q 263 1497 752 1853 
Q 1241 2209 2100 2209 
L 2900 2209 
L 2931 2363 
Q 2938 2388 2941 2417 
Q 2944 2447 2944 2509 
Q 2944 2788 2717 2942 
Q 2491 3097 2081 3097 
Q 1800 3097 1504 3025 
Q 1209 2953 897 2809 
L 997 3341 
Q 1322 3463 1633 3523 
Q 1944 3584 2234 3584 
Q 2853 3584 3176 3315 
Q 3500 3047 3500 2534 
Q 3500 2431 3484 2292 
Q 3469 2153 3438 1997 
z
M 2816 1759 
L 2241 1759 
Q 1534 1759 1195 1570 
Q 856 1381 856 984 
Q 856 709 1029 553 
Q 1203 397 1509 397 
Q 1978 397 2328 733 
Q 2678 1069 2791 1631 
L 2816 1759 
z
" transform="scale(0.015625)"/>
      <path id="DejaVuSans-Oblique-73" d="M 3200 3397 
L 3091 2853 
Q 2863 2978 2609 3040 
Q 2356 3103 2088 3103 
Q 1634 3103 1373 2948 
Q 1113 2794 1113 2528 
Q 1113 2219 1719 2053 
Q 1766 2041 1788 2034 
L 1972 1978 
Q 2547 1819 2739 1644 
Q 2931 1469 2931 1166 
Q 2931 609 2489 259 
Q 2047 -91 1331 -91 
Q 1053 -91 747 -37 
Q 441 16 72 128 
L 184 722 
Q 500 559 806 475 
Q 1113 391 1394 391 
Q 1816 391 2080 572 
Q 2344 753 2344 1031 
Q 2344 1331 1650 1516 
L 1591 1531 
L 1394 1581 
Q 956 1697 753 1886 
Q 550 2075 550 2369 
Q 550 2928 970 3256 
Q 1391 3584 2113 3584 
Q 2397 3584 2667 3537 
Q 2938 3491 3200 3397 
z
" transform="scale(0.015625)"/>
      <path id="DejaVuSans-3e" d="M 678 3150 
L 678 3719 
L 4684 2266 
L 4684 1747 
L 678 294 
L 678 863 
L 3897 2003 
L 678 3150 
z
" transform="scale(0.015625)"/>
      <path id="DejaVuSans-Oblique-52" d="M 1613 4147 
L 1294 2491 
L 2106 2491 
Q 2584 2491 2879 2755 
Q 3175 3019 3175 3444 
Q 3175 3784 2976 3965 
Q 2778 4147 2406 4147 
L 1613 4147 
z
M 2772 2241 
Q 2972 2194 3105 2009 
Q 3238 1825 3413 1275 
L 3809 0 
L 3144 0 
L 2778 1197 
Q 2638 1659 2453 1815 
Q 2269 1972 1888 1972 
L 1191 1972 
L 806 0 
L 172 0 
L 1081 4666 
L 2503 4666 
Q 3150 4666 3495 4373 
Q 3841 4081 3841 3531 
Q 3841 3044 3547 2687 
Q 3253 2331 2772 2241 
z
" transform="scale(0.015625)"/>
     </defs>
     <use xlink:href="#DejaVuSans-68" transform="translate(0 0.684375)"/>
     <use xlink:href="#DejaVuSans-69" transform="translate(63.378906 0.684375)"/>
     <use xlink:href="#DejaVuSans-67" transform="translate(91.162109 0.684375)"/>
     <use xlink:href="#DejaVuSans-68" transform="translate(154.638672 0.684375)"/>
     <use xlink:href="#DejaVuSans-65" transform="translate(218.017578 0.684375)"/>
     <use xlink:href="#DejaVuSans-72" transform="translate(279.541016 0.684375)"/>
     <use xlink:href="#DejaVuSans-20" transform="translate(320.654297 0.684375)"/>
     <use xlink:href="#DejaVuSans-70" transform="translate(352.441406 0.684375)"/>
     <use xlink:href="#DejaVuSans-72" transform="translate(415.917969 0.684375)"/>
     <use xlink:href="#DejaVuSans-65" transform="translate(457.03125 0.684375)"/>
     <use xlink:href="#DejaVuSans-73" transform="translate(518.554688 0.684375)"/>
     <use xlink:href="#DejaVuSans-73" transform="translate(570.654297 0.684375)"/>
     <use xlink:href="#DejaVuSans-75" transform="translate(622.753906 0.684375)"/>
     <use xlink:href="#DejaVuSans-72" transform="translate(686.132812 0.684375)"/>
     <use xlink:href="#DejaVuSans-65" transform="translate(727.246094 0.684375)"/>
     <use xlink:href="#DejaVuSans-2c" transform="translate(788.769531 0.684375)"/>
     <use xlink:href="#DejaVuSans-20" transform="translate(820.556641 0.684375)"/>
     <use xlink:href="#DejaVuSans-Oblique-4e" transform="translate(852.34375 0.684375)"/>
     <use xlink:href="#DejaVuSans-Oblique-4c" transform="translate(934.165208 38.965625) scale(0.7)"/>
     <use xlink:href="#DejaVuSans-Oblique-67" transform="translate(927.148438 -26.659375) scale(0.7)"/>
     <use xlink:href="#DejaVuSans-Oblique-61" transform="translate(971.582031 -26.659375) scale(0.7)"/>
     <use xlink:href="#DejaVuSans-Oblique-73" transform="translate(1014.477539 -26.659375) scale(0.7)"/>
     <use xlink:href="#DejaVuSans-3e" transform="translate(1073.164062 0.684375)"/>
     <use xlink:href="#DejaVuSans-Oblique-4e" transform="translate(1176.435547 0.684375)"/>
     <use xlink:href="#DejaVuSans-Oblique-52" transform="translate(1258.257005 38.965625) scale(0.7)"/>
     <use xlink:href="#DejaVuSans-Oblique-67" transform="translate(1251.240234 -26.659375) scale(0.7)"/>
     <use xlink:href="#DejaVuSans-Oblique-61" transform="translate(1295.673828 -26.659375) scale(0.7)"/>
     <use xlink:href="#DejaVuSans-Oblique-73" transform="translate(1338.569336 -26.659375) scale(0.7)"/>
    </g>
   </g>
   <g id="legend_1">
    <g id="patch_7">
     <path d="M 142.8 106.970375 
L 215 106.970375 
Q 217 106.970375 217 104.970375 
L 217 61.936 
Q 217 59.936 215 59.936 
L 142.8 59.936 
Q 140.8 59.936 140.8 61.936 
L 140.8 104.970375 
Q 140.8 106.970375 142.8 106.970375 
z
" style="fill: #ffffff; opacity: 0.8; stroke: #cccccc; stroke-linejoin: miter"/>
    </g>
    <g id="line2d_15">
     <path d="M 144.8 68.034438 
L 154.8 68.034438 
L 164.8 68.034438 
" style="fill: none; stroke: #ff0000; stroke-width: 1.5; stroke-linecap: square"/>
    </g>
    <g id="text_6">
     <!-- $v_{forward}$ -->
     <g transform="translate(172.8 71.534438) scale(0.1 -0.1)">
      <defs>
       <path id="DejaVuSans-Oblique-76" d="M 459 3500 
L 1069 3500 
L 1581 525 
L 3256 3500 
L 3866 3500 
L 1875 0 
L 1100 0 
L 459 3500 
z
" transform="scale(0.015625)"/>
       <path id="DejaVuSans-Oblique-66" d="M 3059 4863 
L 2969 4384 
L 2419 4384 
Q 2106 4384 1964 4261 
Q 1822 4138 1753 3809 
L 1691 3500 
L 2638 3500 
L 2553 3053 
L 1606 3053 
L 1013 0 
L 434 0 
L 1031 3053 
L 481 3053 
L 563 3500 
L 1113 3500 
L 1159 3744 
Q 1278 4363 1576 4613 
Q 1875 4863 2516 4863 
L 3059 4863 
z
" transform="scale(0.015625)"/>
       <path id="DejaVuSans-Oblique-6f" d="M 1625 -91 
Q 1009 -91 651 289 
Q 294 669 294 1325 
Q 294 1706 417 2101 
Q 541 2497 738 2766 
Q 1047 3184 1428 3384 
Q 1809 3584 2291 3584 
Q 2888 3584 3255 3212 
Q 3622 2841 3622 2241 
Q 3622 1825 3500 1412 
Q 3378 1000 3181 728 
Q 2875 309 2494 109 
Q 2113 -91 1625 -91 
z
M 891 1344 
Q 891 869 1089 633 
Q 1288 397 1691 397 
Q 2269 397 2648 901 
Q 3028 1406 3028 2181 
Q 3028 2634 2825 2865 
Q 2622 3097 2228 3097 
Q 1903 3097 1650 2945 
Q 1397 2794 1197 2484 
Q 1050 2253 970 1956 
Q 891 1659 891 1344 
z
" transform="scale(0.015625)"/>
       <path id="DejaVuSans-Oblique-72" d="M 2853 2969 
Q 2766 3016 2653 3041 
Q 2541 3066 2413 3066 
Q 1953 3066 1609 2717 
Q 1266 2369 1153 1784 
L 800 0 
L 225 0 
L 909 3500 
L 1484 3500 
L 1375 2956 
Q 1603 3259 1920 3421 
Q 2238 3584 2597 3584 
Q 2691 3584 2781 3573 
Q 2872 3563 2963 3538 
L 2853 2969 
z
" transform="scale(0.015625)"/>
       <path id="DejaVuSans-Oblique-77" d="M 544 3500 
L 1113 3500 
L 1259 684 
L 2566 3500 
L 3231 3500 
L 3425 684 
L 4666 3500 
L 5241 3500 
L 3641 0 
L 2969 0 
L 2797 2900 
L 1459 0 
L 781 0 
L 544 3500 
z
" transform="scale(0.015625)"/>
       <path id="DejaVuSans-Oblique-64" d="M 2675 525 
Q 2444 222 2128 65 
Q 1813 -91 1428 -91 
Q 903 -91 598 267 
Q 294 625 294 1247 
Q 294 1766 478 2236 
Q 663 2706 1013 3078 
Q 1244 3325 1534 3454 
Q 1825 3584 2144 3584 
Q 2481 3584 2739 3421 
Q 2997 3259 3138 2956 
L 3513 4863 
L 4091 4863 
L 3144 0 
L 2566 0 
L 2675 525 
z
M 891 1350 
Q 891 897 1095 644 
Q 1300 391 1663 391 
Q 1931 391 2161 520 
Q 2391 650 2566 903 
Q 2750 1166 2856 1509 
Q 2963 1853 2963 2188 
Q 2963 2622 2758 2865 
Q 2553 3109 2194 3109 
Q 1922 3109 1687 2981 
Q 1453 2853 1288 2613 
Q 1106 2353 998 2009 
Q 891 1666 891 1350 
z
" transform="scale(0.015625)"/>
      </defs>
      <use xlink:href="#DejaVuSans-Oblique-76" transform="translate(0 0.3125)"/>
      <use xlink:href="#DejaVuSans-Oblique-66" transform="translate(59.179688 -16.09375) scale(0.7)"/>
      <use xlink:href="#DejaVuSans-Oblique-6f" transform="translate(83.823242 -16.09375) scale(0.7)"/>
      <use xlink:href="#DejaVuSans-Oblique-72" transform="translate(126.650391 -16.09375) scale(0.7)"/>
      <use xlink:href="#DejaVuSans-Oblique-77" transform="translate(155.429688 -16.09375) scale(0.7)"/>
      <use xlink:href="#DejaVuSans-Oblique-61" transform="translate(212.680664 -16.09375) scale(0.7)"/>
      <use xlink:href="#DejaVuSans-Oblique-72" transform="translate(255.576172 -16.09375) scale(0.7)"/>
      <use xlink:href="#DejaVuSans-Oblique-64" transform="translate(284.355469 -16.09375) scale(0.7)"/>
     </g>
    </g>
    <g id="line2d_16">
     <path d="M 144.8 82.712563 
L 154.8 82.712563 
L 164.8 82.712563 
" style="fill: none; stroke: #0000ff; stroke-width: 1.5; stroke-linecap: square"/>
    </g>
    <g id="text_7">
     <!-- $v_{backward}$ -->
     <g transform="translate(172.8 86.212563) scale(0.1 -0.1)">
      <defs>
       <path id="DejaVuSans-Oblique-62" d="M 3169 2138 
Q 3169 2591 2961 2847 
Q 2753 3103 2388 3103 
Q 2122 3103 1889 2973 
Q 1656 2844 1484 2597 
Q 1303 2338 1198 1995 
Q 1094 1653 1094 1313 
Q 1094 881 1298 636 
Q 1503 391 1863 391 
Q 2134 391 2365 517 
Q 2597 644 2772 891 
Q 2950 1147 3059 1487 
Q 3169 1828 3169 2138 
z
M 1381 2969 
Q 1594 3256 1914 3420 
Q 2234 3584 2584 3584 
Q 3122 3584 3439 3221 
Q 3756 2859 3756 2241 
Q 3756 1734 3570 1259 
Q 3384 784 3041 416 
Q 2816 172 2522 40 
Q 2228 -91 1906 -91 
Q 1566 -91 1316 65 
Q 1066 222 909 531 
L 806 0 
L 231 0 
L 1178 4863 
L 1753 4863 
L 1381 2969 
z
" transform="scale(0.015625)"/>
       <path id="DejaVuSans-Oblique-63" d="M 3431 3366 
L 3316 2797 
Q 3109 2947 2876 3022 
Q 2644 3097 2394 3097 
Q 2119 3097 1870 3000 
Q 1622 2903 1453 2725 
Q 1184 2453 1037 2087 
Q 891 1722 891 1331 
Q 891 859 1127 628 
Q 1363 397 1844 397 
Q 2081 397 2348 469 
Q 2616 541 2906 684 
L 2797 116 
Q 2547 13 2283 -39 
Q 2019 -91 1741 -91 
Q 1044 -91 669 257 
Q 294 606 294 1253 
Q 294 1797 489 2255 
Q 684 2713 1069 3078 
Q 1331 3328 1684 3456 
Q 2038 3584 2456 3584 
Q 2700 3584 2940 3529 
Q 3181 3475 3431 3366 
z
" transform="scale(0.015625)"/>
       <path id="DejaVuSans-Oblique-6b" d="M 1172 4863 
L 1747 4863 
L 1197 2028 
L 3169 3500 
L 3916 3500 
L 1716 1825 
L 3322 0 
L 2625 0 
L 1131 1709 
L 800 0 
L 225 0 
L 1172 4863 
z
" transform="scale(0.015625)"/>
      </defs>
      <use xlink:href="#DejaVuSans-Oblique-76" transform="translate(0 0.3125)"/>
      <use xlink:href="#DejaVuSans-Oblique-62" transform="translate(59.179688 -16.09375) scale(0.7)"/>
      <use xlink:href="#DejaVuSans-Oblique-61" transform="translate(103.613281 -16.09375) scale(0.7)"/>
      <use xlink:href="#DejaVuSans-Oblique-63" transform="translate(146.508789 -16.09375) scale(0.7)"/>
      <use xlink:href="#DejaVuSans-Oblique-6b" transform="translate(184.995117 -16.09375) scale(0.7)"/>
      <use xlink:href="#DejaVuSans-Oblique-77" transform="translate(225.532227 -16.09375) scale(0.7)"/>
      <use xlink:href="#DejaVuSans-Oblique-61" transform="translate(282.783203 -16.09375) scale(0.7)"/>
      <use xlink:href="#DejaVuSans-Oblique-72" transform="translate(325.678711 -16.09375) scale(0.7)"/>
      <use xlink:href="#DejaVuSans-Oblique-64" transform="translate(354.458008 -16.09375) scale(0.7)"/>
     </g>
    </g>
    <g id="line2d_17">
     <path d="M 144.8 97.390688 
L 154.8 97.390688 
L 164.8 97.390688 
" style="fill: none; stroke: #800080; stroke-width: 1.5; stroke-linecap: square"/>
    </g>
    <g id="text_8">
     <!-- $v_{balance}$ -->
     <g transform="translate(172.8 100.890688) scale(0.1 -0.1)">
      <defs>
       <path id="DejaVuSans-Oblique-6c" d="M 1172 4863 
L 1747 4863 
L 800 0 
L 225 0 
L 1172 4863 
z
" transform="scale(0.015625)"/>
       <path id="DejaVuSans-Oblique-6e" d="M 3566 2113 
L 3156 0 
L 2578 0 
L 2988 2091 
Q 3016 2238 3031 2350 
Q 3047 2463 3047 2528 
Q 3047 2791 2881 2937 
Q 2716 3084 2419 3084 
Q 1956 3084 1622 2776 
Q 1288 2469 1184 1941 
L 800 0 
L 225 0 
L 903 3500 
L 1478 3500 
L 1363 2950 
Q 1603 3253 1940 3418 
Q 2278 3584 2650 3584 
Q 3113 3584 3367 3334 
Q 3622 3084 3622 2631 
Q 3622 2519 3608 2391 
Q 3594 2263 3566 2113 
z
" transform="scale(0.015625)"/>
       <path id="DejaVuSans-Oblique-65" d="M 3078 2063 
Q 3088 2113 3092 2166 
Q 3097 2219 3097 2272 
Q 3097 2653 2873 2875 
Q 2650 3097 2266 3097 
Q 1838 3097 1509 2826 
Q 1181 2556 1013 2059 
L 3078 2063 
z
M 3578 1613 
L 903 1613 
Q 884 1494 878 1425 
Q 872 1356 872 1306 
Q 872 872 1139 634 
Q 1406 397 1894 397 
Q 2269 397 2603 481 
Q 2938 566 3225 728 
L 3116 159 
Q 2806 34 2476 -28 
Q 2147 -91 1806 -91 
Q 1078 -91 686 257 
Q 294 606 294 1247 
Q 294 1794 489 2264 
Q 684 2734 1063 3103 
Q 1306 3334 1642 3459 
Q 1978 3584 2356 3584 
Q 2950 3584 3301 3228 
Q 3653 2872 3653 2272 
Q 3653 2128 3634 1964 
Q 3616 1800 3578 1613 
z
" transform="scale(0.015625)"/>
      </defs>
      <use xlink:href="#DejaVuSans-Oblique-76" transform="translate(0 0.3125)"/>
      <use xlink:href="#DejaVuSans-Oblique-62" transform="translate(59.179688 -16.09375) scale(0.7)"/>
      <use xlink:href="#DejaVuSans-Oblique-61" transform="translate(103.613281 -16.09375) scale(0.7)"/>
      <use xlink:href="#DejaVuSans-Oblique-6c" transform="translate(146.508789 -16.09375) scale(0.7)"/>
      <use xlink:href="#DejaVuSans-Oblique-61" transform="translate(165.957031 -16.09375) scale(0.7)"/>
      <use xlink:href="#DejaVuSans-Oblique-6e" transform="translate(208.852539 -16.09375) scale(0.7)"/>
      <use xlink:href="#DejaVuSans-Oblique-63" transform="translate(253.217773 -16.09375) scale(0.7)"/>
      <use xlink:href="#DejaVuSans-Oblique-65" transform="translate(291.704102 -16.09375) scale(0.7)"/>
     </g>
    </g>
   </g>
  </g>
  <g id="axes_2">
   <g id="patch_8">
    <path d="M 249.1 160.472 
L 447 160.472 
L 447 54.936 
L 249.1 54.936 
z
" style="fill: #ffffff"/>
   </g>
   <g id="matplotlib.axis_3">
    <g id="xtick_4">
     <g id="line2d_18">
      <g>
       <use xlink:href="#m80216fa0e1" x="249.1" y="160.472" style="stroke: #000000; stroke-width: 0.8"/>
      </g>
     </g>
     <g id="text_9">
      <!-- 0 -->
      <g transform="translate(245.91875 175.070437) scale(0.1 -0.1)">
       <use xlink:href="#DejaVuSans-30"/>
      </g>
     </g>
    </g>
    <g id="xtick_5">
     <g id="line2d_19">
      <g>
       <use xlink:href="#m80216fa0e1" x="311.925397" y="160.472" style="stroke: #000000; stroke-width: 0.8"/>
      </g>
     </g>
     <g id="text_10">
      <!-- $t_{1}$ -->
      <g transform="translate(307.575397 175.070437) scale(0.1 -0.1)">
       <use xlink:href="#DejaVuSans-Oblique-74" transform="translate(0 0.78125)"/>
       <use xlink:href="#DejaVuSans-31" transform="translate(39.208984 -15.625) scale(0.7)"/>
      </g>
     </g>
    </g>
    <g id="xtick_6">
     <g id="line2d_20">
      <g>
       <use xlink:href="#m80216fa0e1" x="406.163492" y="160.472" style="stroke: #000000; stroke-width: 0.8"/>
      </g>
     </g>
     <g id="text_11">
      <!-- $t_{2}$ -->
      <g transform="translate(401.813492 175.070437) scale(0.1 -0.1)">
       <use xlink:href="#DejaVuSans-Oblique-74" transform="translate(0 0.78125)"/>
       <use xlink:href="#DejaVuSans-32" transform="translate(39.208984 -15.625) scale(0.7)"/>
      </g>
     </g>
    </g>
   </g>
   <g id="matplotlib.axis_4">
    <g id="ytick_2">
     <g id="line2d_21">
      <g>
       <use xlink:href="#ma218d185f5" x="249.1" y="160.472" style="stroke: #000000; stroke-width: 0.8"/>
      </g>
     </g>
     <g id="text_12">
      <!-- 0 -->
      <g transform="translate(235.7375 164.271219) scale(0.1 -0.1)">
       <use xlink:href="#DejaVuSans-30"/>
      </g>
     </g>
    </g>
   </g>
   <g id="line2d_22">
    <path d="M 249.1 101.34819 
L 253.627957 105.45581 
L 258.093025 109.205636 
L 262.432316 112.563693 
L 266.70872 115.597133 
L 270.922235 118.31804 
L 275.072862 120.738322 
L 279.1606 122.86971 
L 283.248339 124.750799 
L 287.273189 126.358396 
L 291.235151 127.703876 
L 295.197113 128.814223 
L 299.096187 129.677383 
L 302.99526 130.312815 
L 306.894334 130.72052 
L 310.730519 130.899402 
L 311.925397 130.910095 
L 311.925397 130.910095 
" clip-path="url(#pa45f8a0000)" style="fill: none; stroke: #ff0000; stroke-width: 1.5; stroke-linecap: square"/>
   </g>
   <g id="line2d_23">
    <path d="M 249.1 160.472 
L 253.627957 156.36438 
L 258.093025 152.614554 
L 262.432316 149.256497 
L 266.70872 146.223058 
L 270.922235 143.502151 
L 275.072862 141.081868 
L 279.1606 138.950481 
L 283.248339 137.069392 
L 287.273189 135.461795 
L 291.235151 134.116315 
L 295.197113 133.005967 
L 299.096187 132.142808 
L 302.99526 131.507375 
L 306.894334 131.09967 
L 310.730519 130.920788 
L 311.925397 130.910095 
L 311.925397 130.910095 
" clip-path="url(#pa45f8a0000)" style="fill: none; stroke: #0000ff; stroke-width: 1.5; stroke-linecap: square"/>
   </g>
   <g id="line2d_24">
    <path d="M 311.925397 130.910095 
L 343.338095 130.910095 
L 343.338095 130.910095 
" clip-path="url(#pa45f8a0000)" style="fill: none; stroke: #800080; stroke-width: 1.5; stroke-linecap: square"/>
   </g>
   <g id="line2d_25">
    <path d="M 311.925397 160.472 
L 311.925397 54.936 
" clip-path="url(#pa45f8a0000)" style="fill: none; stroke-dasharray: 1.5,1.5; stroke-dashoffset: 0; stroke: #000000; stroke-width: 1.5"/>
   </g>
   <g id="line2d_26">
    <path d="M 343.338095 119.085333 
L 347.866052 114.977714 
L 352.33112 111.227888 
L 356.670412 107.86983 
L 360.946815 104.836391 
L 365.16033 102.115484 
L 369.310957 99.695202 
L 373.398696 97.563814 
L 377.486434 95.682725 
L 381.511284 94.075128 
L 385.473246 92.729648 
L 389.435208 91.6193 
L 393.334282 90.756141 
L 397.233356 90.120709 
L 401.132429 89.713004 
L 404.968615 89.534122 
L 406.163492 89.523429 
L 406.163492 89.523429 
" clip-path="url(#pa45f8a0000)" style="fill: none; stroke: #ff0000; stroke-width: 1.5; stroke-linecap: square"/>
   </g>
   <g id="line2d_27">
    <path d="M 343.338095 59.961524 
L 347.866052 64.069143 
L 352.33112 67.81897 
L 356.670412 71.177027 
L 360.946815 74.210466 
L 365.16033 76.931373 
L 369.310957 79.351655 
L 373.398696 81.483043 
L 377.486434 83.364132 
L 381.511284 84.971729 
L 385.473246 86.317209 
L 389.435208 87.427557 
L 393.334282 88.290716 
L 397.233356 88.926148 
L 401.132429 89.333853 
L 404.968615 89.512735 
L 406.163492 89.523429 
L 406.163492 89.523429 
" clip-path="url(#pa45f8a0000)" style="fill: none; stroke: #0000ff; stroke-width: 1.5; stroke-linecap: square"/>
   </g>
   <g id="line2d_28">
    <path d="M 406.163492 89.523429 
L 437.57619 89.523429 
L 437.57619 89.523429 
" clip-path="url(#pa45f8a0000)" style="fill: none; stroke: #800080; stroke-width: 1.5; stroke-linecap: square"/>
   </g>
   <g id="line2d_29">
    <path d="M 406.163492 160.472 
L 406.163492 54.936 
" clip-path="url(#pa45f8a0000)" style="fill: none; stroke-dasharray: 1.5,1.5; stroke-dashoffset: 0; stroke: #000000; stroke-width: 1.5"/>
   </g>
   <g id="line2d_30">
    <g>
     <use xlink:href="#m7d37b32632" x="447" y="160.472" style="stroke: #000000; stroke-linejoin: miter"/>
    </g>
   </g>
   <g id="line2d_31">
    <g>
     <use xlink:href="#m8212750f62" x="249.1" y="54.936" style="stroke: #000000; stroke-linejoin: miter"/>
    </g>
   </g>
   <g id="patch_9">
    <path d="M 249.1 160.472 
L 249.1 54.936 
" style="fill: none; stroke: #000000; stroke-width: 0.8; stroke-linejoin: miter; stroke-linecap: square"/>
   </g>
   <g id="patch_10">
    <path d="M 447 160.472 
L 447 54.936 
" style="fill: none"/>
   </g>
   <g id="patch_11">
    <path d="M 249.1 160.472 
L 447 160.472 
" style="fill: none; stroke: #000000; stroke-width: 0.8; stroke-linejoin: miter; stroke-linecap: square"/>
   </g>
   <g id="patch_12">
    <path d="M 249.1 54.936 
L 447 54.936 
" style="fill: none"/>
   </g>
   <g id="text_13">
    <!-- higher pressure, $N_{gas}^L &lt; N_{gas}^R$ -->
    <g transform="translate(265.37 48.936) scale(0.12 -0.12)">
     <defs>
      <path id="DejaVuSans-3c" d="M 4684 3150 
L 1459 2003 
L 4684 863 
L 4684 294 
L 678 1747 
L 678 2266 
L 4684 3719 
L 4684 3150 
z
" transform="scale(0.015625)"/>
     </defs>
     <use xlink:href="#DejaVuSans-68" transform="translate(0 0.684375)"/>
     <use xlink:href="#DejaVuSans-69" transform="translate(63.378906 0.684375)"/>
     <use xlink:href="#DejaVuSans-67" transform="translate(91.162109 0.684375)"/>
     <use xlink:href="#DejaVuSans-68" transform="translate(154.638672 0.684375)"/>
     <use xlink:href="#DejaVuSans-65" transform="translate(218.017578 0.684375)"/>
     <use xlink:href="#DejaVuSans-72" transform="translate(279.541016 0.684375)"/>
     <use xlink:href="#DejaVuSans-20" transform="translate(320.654297 0.684375)"/>
     <use xlink:href="#DejaVuSans-70" transform="translate(352.441406 0.684375)"/>
     <use xlink:href="#DejaVuSans-72" transform="translate(415.917969 0.684375)"/>
     <use xlink:href="#DejaVuSans-65" transform="translate(457.03125 0.684375)"/>
     <use xlink:href="#DejaVuSans-73" transform="translate(518.554688 0.684375)"/>
     <use xlink:href="#DejaVuSans-73" transform="translate(570.654297 0.684375)"/>
     <use xlink:href="#DejaVuSans-75" transform="translate(622.753906 0.684375)"/>
     <use xlink:href="#DejaVuSans-72" transform="translate(686.132812 0.684375)"/>
     <use xlink:href="#DejaVuSans-65" transform="translate(727.246094 0.684375)"/>
     <use xlink:href="#DejaVuSans-2c" transform="translate(788.769531 0.684375)"/>
     <use xlink:href="#DejaVuSans-20" transform="translate(820.556641 0.684375)"/>
     <use xlink:href="#DejaVuSans-Oblique-4e" transform="translate(852.34375 0.684375)"/>
     <use xlink:href="#DejaVuSans-Oblique-4c" transform="translate(934.165208 38.965625) scale(0.7)"/>
     <use xlink:href="#DejaVuSans-Oblique-67" transform="translate(927.148438 -26.659375) scale(0.7)"/>
     <use xlink:href="#DejaVuSans-Oblique-61" transform="translate(971.582031 -26.659375) scale(0.7)"/>
     <use xlink:href="#DejaVuSans-Oblique-73" transform="translate(1014.477539 -26.659375) scale(0.7)"/>
     <use xlink:href="#DejaVuSans-3c" transform="translate(1073.164062 0.684375)"/>
     <use xlink:href="#DejaVuSans-Oblique-4e" transform="translate(1176.435547 0.684375)"/>
     <use xlink:href="#DejaVuSans-Oblique-52" transform="translate(1258.257005 38.965625) scale(0.7)"/>
     <use xlink:href="#DejaVuSans-Oblique-67" transform="translate(1251.240234 -26.659375) scale(0.7)"/>
     <use xlink:href="#DejaVuSans-Oblique-61" transform="translate(1295.673828 -26.659375) scale(0.7)"/>
     <use xlink:href="#DejaVuSans-Oblique-73" transform="translate(1338.569336 -26.659375) scale(0.7)"/>
    </g>
   </g>
  </g>
  <g id="axes_3">
   <g id="patch_13">
    <path d="M 24.1 315.992 
L 222 315.992 
L 222 210.456 
L 24.1 210.456 
z
" style="fill: #ffffff"/>
   </g>
   <g id="matplotlib.axis_5">
    <g id="xtick_7">
     <g id="line2d_32">
      <g>
       <use xlink:href="#m80216fa0e1" x="24.1" y="315.992" style="stroke: #000000; stroke-width: 0.8"/>
      </g>
     </g>
     <g id="text_14">
      <!-- 0 -->
      <g transform="translate(20.91875 330.590437) scale(0.1 -0.1)">
       <use xlink:href="#DejaVuSans-30"/>
      </g>
     </g>
    </g>
    <g id="xtick_8">
     <g id="line2d_33">
      <g>
       <use xlink:href="#m80216fa0e1" x="86.925397" y="315.992" style="stroke: #000000; stroke-width: 0.8"/>
      </g>
     </g>
     <g id="text_15">
      <!-- $t_{1}$ -->
      <g transform="translate(82.575397 330.590437) scale(0.1 -0.1)">
       <use xlink:href="#DejaVuSans-Oblique-74" transform="translate(0 0.78125)"/>
       <use xlink:href="#DejaVuSans-31" transform="translate(39.208984 -15.625) scale(0.7)"/>
      </g>
     </g>
    </g>
    <g id="xtick_9">
     <g id="line2d_34">
      <g>
       <use xlink:href="#m80216fa0e1" x="181.163492" y="315.992" style="stroke: #000000; stroke-width: 0.8"/>
      </g>
     </g>
     <g id="text_16">
      <!-- $t_{2}$ -->
      <g transform="translate(176.813492 330.590437) scale(0.1 -0.1)">
       <use xlink:href="#DejaVuSans-Oblique-74" transform="translate(0 0.78125)"/>
       <use xlink:href="#DejaVuSans-32" transform="translate(39.208984 -15.625) scale(0.7)"/>
      </g>
     </g>
    </g>
   </g>
   <g id="matplotlib.axis_6">
    <g id="ytick_3">
     <g id="line2d_35">
      <g>
       <use xlink:href="#ma218d185f5" x="24.1" y="315.992" style="stroke: #000000; stroke-width: 0.8"/>
      </g>
     </g>
     <g id="text_17">
      <!-- 0 -->
      <g transform="translate(10.7375 319.791219) scale(0.1 -0.1)">
       <use xlink:href="#DejaVuSans-30"/>
      </g>
     </g>
    </g>
   </g>
   <g id="line2d_36">
    <path d="M 24.1 215.481524 
L 28.187739 221.808491 
L 32.1497 227.534712 
L 36.048774 232.779782 
L 39.822071 237.487052 
L 43.53248 241.762318 
L 47.117112 245.559707 
L 50.638856 248.971823 
L 54.097712 252.015585 
L 57.493679 254.707611 
L 60.826759 257.064217 
L 64.034061 259.064807 
L 67.241364 260.803445 
L 70.385778 262.253695 
L 73.467304 263.430663 
L 76.485941 264.349155 
L 79.504579 265.035606 
L 82.460329 265.482918 
L 85.416078 265.707757 
L 86.925397 265.736762 
L 86.925397 265.736762 
" clip-path="url(#pa406804ed2)" style="fill: none; stroke: #ff0000; stroke-width: 1.5; stroke-linecap: square"/>
   </g>
   <g id="line2d_37">
    <path d="M 24.1 315.992 
L 28.187739 309.665033 
L 32.1497 303.938812 
L 36.048774 298.693741 
L 39.822071 293.986472 
L 43.53248 289.711206 
L 47.117112 285.913817 
L 50.638856 282.501701 
L 54.097712 279.457939 
L 57.493679 276.765912 
L 60.826759 274.409307 
L 64.034061 272.408717 
L 67.241364 270.670079 
L 70.385778 269.219829 
L 73.467304 268.042861 
L 76.485941 267.124369 
L 79.504579 266.437917 
L 82.460329 265.990606 
L 85.416078 265.765767 
L 86.925397 265.736762 
L 86.925397 265.736762 
" clip-path="url(#pa406804ed2)" style="fill: none; stroke: #0000ff; stroke-width: 1.5; stroke-linecap: square"/>
   </g>
   <g id="line2d_38">
    <path d="M 86.925397 265.736762 
L 118.338095 265.736762 
L 118.338095 265.736762 
" clip-path="url(#pa406804ed2)" style="fill: none; stroke: #800080; stroke-width: 1.5; stroke-linecap: square"/>
   </g>
   <g id="line2d_39">
    <path d="M 86.925397 315.992 
L 86.925397 210.456 
" clip-path="url(#pa406804ed2)" style="fill: none; stroke-dasharray: 1.5,1.5; stroke-dashoffset: 0; stroke: #000000; stroke-width: 1.5"/>
   </g>
   <g id="line2d_40">
    <path d="M 118.338095 270.762286 
L 123.998041 273.35642 
L 129.657987 275.705825 
L 135.255044 277.788459 
L 140.789213 279.61239 
L 146.323382 281.202348 
L 151.794663 282.544237 
L 157.265944 283.65744 
L 162.674336 284.533088 
L 168.082729 285.185278 
L 173.491121 285.614008 
L 178.899514 285.819279 
L 181.163492 285.838857 
L 181.163492 285.838857 
" clip-path="url(#pa406804ed2)" style="fill: none; stroke: #ff0000; stroke-width: 1.5; stroke-linecap: square"/>
   </g>
   <g id="line2d_41">
    <path d="M 118.338095 300.915429 
L 123.998041 298.321294 
L 129.657987 295.971889 
L 135.255044 293.889255 
L 140.789213 292.065324 
L 146.323382 290.475367 
L 151.794663 289.133477 
L 157.265944 288.020275 
L 162.674336 287.144626 
L 168.082729 286.492436 
L 173.491121 286.063706 
L 178.899514 285.858436 
L 181.163492 285.838857 
L 181.163492 285.838857 
" clip-path="url(#pa406804ed2)" style="fill: none; stroke: #0000ff; stroke-width: 1.5; stroke-linecap: square"/>
   </g>
   <g id="line2d_42">
    <path d="M 181.163492 285.838857 
L 212.57619 285.838857 
L 212.57619 285.838857 
" clip-path="url(#pa406804ed2)" style="fill: none; stroke: #800080; stroke-width: 1.5; stroke-linecap: square"/>
   </g>
   <g id="line2d_43">
    <path d="M 181.163492 315.992 
L 181.163492 210.456 
" clip-path="url(#pa406804ed2)" style="fill: none; stroke-dasharray: 1.5,1.5; stroke-dashoffset: 0; stroke: #000000; stroke-width: 1.5"/>
   </g>
   <g id="line2d_44">
    <g>
     <use xlink:href="#m7d37b32632" x="222" y="315.992" style="stroke: #000000; stroke-linejoin: miter"/>
    </g>
   </g>
   <g id="line2d_45">
    <g>
     <use xlink:href="#m8212750f62" x="24.1" y="210.456" style="stroke: #000000; stroke-linejoin: miter"/>
    </g>
   </g>
   <g id="patch_14">
    <path d="M 24.1 315.992 
L 24.1 210.456 
" style="fill: none; stroke: #000000; stroke-width: 0.8; stroke-linejoin: miter; stroke-linecap: square"/>
   </g>
   <g id="patch_15">
    <path d="M 222 315.992 
L 222 210.456 
" style="fill: none"/>
   </g>
   <g id="patch_16">
    <path d="M 24.1 315.992 
L 222 315.992 
" style="fill: none; stroke: #000000; stroke-width: 0.8; stroke-linejoin: miter; stroke-linecap: square"/>
   </g>
   <g id="patch_17">
    <path d="M 24.1 210.456 
L 222 210.456 
" style="fill: none"/>
   </g>
   <g id="text_18">
    <!-- lower pressure, $N_{gas}^L &lt; N_{gas}^R$ -->
    <g transform="translate(43.19 204.456) scale(0.12 -0.12)">
     <defs>
      <path id="DejaVuSans-6c" d="M 603 4863 
L 1178 4863 
L 1178 0 
L 603 0 
L 603 4863 
z
" transform="scale(0.015625)"/>
      <path id="DejaVuSans-6f" d="M 1959 3097 
Q 1497 3097 1228 2736 
Q 959 2375 959 1747 
Q 959 1119 1226 758 
Q 1494 397 1959 397 
Q 2419 397 2687 759 
Q 2956 1122 2956 1747 
Q 2956 2369 2687 2733 
Q 2419 3097 1959 3097 
z
M 1959 3584 
Q 2709 3584 3137 3096 
Q 3566 2609 3566 1747 
Q 3566 888 3137 398 
Q 2709 -91 1959 -91 
Q 1206 -91 779 398 
Q 353 888 353 1747 
Q 353 2609 779 3096 
Q 1206 3584 1959 3584 
z
" transform="scale(0.015625)"/>
      <path id="DejaVuSans-77" d="M 269 3500 
L 844 3500 
L 1563 769 
L 2278 3500 
L 2956 3500 
L 3675 769 
L 4391 3500 
L 4966 3500 
L 4050 0 
L 3372 0 
L 2619 2869 
L 1863 0 
L 1184 0 
L 269 3500 
z
" transform="scale(0.015625)"/>
     </defs>
     <use xlink:href="#DejaVuSans-6c" transform="translate(0 0.684375)"/>
     <use xlink:href="#DejaVuSans-6f" transform="translate(27.783203 0.684375)"/>
     <use xlink:href="#DejaVuSans-77" transform="translate(88.964844 0.684375)"/>
     <use xlink:href="#DejaVuSans-65" transform="translate(170.751953 0.684375)"/>
     <use xlink:href="#DejaVuSans-72" transform="translate(232.275391 0.684375)"/>
     <use xlink:href="#DejaVuSans-20" transform="translate(273.388672 0.684375)"/>
     <use xlink:href="#DejaVuSans-70" transform="translate(305.175781 0.684375)"/>
     <use xlink:href="#DejaVuSans-72" transform="translate(368.652344 0.684375)"/>
     <use xlink:href="#DejaVuSans-65" transform="translate(409.765625 0.684375)"/>
     <use xlink:href="#DejaVuSans-73" transform="translate(471.289062 0.684375)"/>
     <use xlink:href="#DejaVuSans-73" transform="translate(523.388672 0.684375)"/>
     <use xlink:href="#DejaVuSans-75" transform="translate(575.488281 0.684375)"/>
     <use xlink:href="#DejaVuSans-72" transform="translate(638.867188 0.684375)"/>
     <use xlink:href="#DejaVuSans-65" transform="translate(679.980469 0.684375)"/>
     <use xlink:href="#DejaVuSans-2c" transform="translate(741.503906 0.684375)"/>
     <use xlink:href="#DejaVuSans-20" transform="translate(773.291016 0.684375)"/>
     <use xlink:href="#DejaVuSans-Oblique-4e" transform="translate(805.078125 0.684375)"/>
     <use xlink:href="#DejaVuSans-Oblique-4c" transform="translate(886.899583 38.965625) scale(0.7)"/>
     <use xlink:href="#DejaVuSans-Oblique-67" transform="translate(879.882812 -26.659375) scale(0.7)"/>
     <use xlink:href="#DejaVuSans-Oblique-61" transform="translate(924.316406 -26.659375) scale(0.7)"/>
     <use xlink:href="#DejaVuSans-Oblique-73" transform="translate(967.211914 -26.659375) scale(0.7)"/>
     <use xlink:href="#DejaVuSans-3c" transform="translate(1025.898438 0.684375)"/>
     <use xlink:href="#DejaVuSans-Oblique-4e" transform="translate(1129.169922 0.684375)"/>
     <use xlink:href="#DejaVuSans-Oblique-52" transform="translate(1210.99138 38.965625) scale(0.7)"/>
     <use xlink:href="#DejaVuSans-Oblique-67" transform="translate(1203.974609 -26.659375) scale(0.7)"/>
     <use xlink:href="#DejaVuSans-Oblique-61" transform="translate(1248.408203 -26.659375) scale(0.7)"/>
     <use xlink:href="#DejaVuSans-Oblique-73" transform="translate(1291.303711 -26.659375) scale(0.7)"/>
    </g>
   </g>
  </g>
  <g id="axes_4">
   <g id="patch_18">
    <path d="M 249.1 315.992 
L 447 315.992 
L 447 210.456 
L 249.1 210.456 
z
" style="fill: #ffffff"/>
   </g>
   <g id="matplotlib.axis_7">
    <g id="xtick_10">
     <g id="line2d_46">
      <g>
       <use xlink:href="#m80216fa0e1" x="249.1" y="315.992" style="stroke: #000000; stroke-width: 0.8"/>
      </g>
     </g>
     <g id="text_19">
      <!-- 0 -->
      <g transform="translate(245.91875 330.590437) scale(0.1 -0.1)">
       <use xlink:href="#DejaVuSans-30"/>
      </g>
     </g>
    </g>
    <g id="xtick_11">
     <g id="line2d_47">
      <g>
       <use xlink:href="#m80216fa0e1" x="311.925397" y="315.992" style="stroke: #000000; stroke-width: 0.8"/>
      </g>
     </g>
     <g id="text_20">
      <!-- $t_{1}$ -->
      <g transform="translate(307.575397 330.590437) scale(0.1 -0.1)">
       <use xlink:href="#DejaVuSans-Oblique-74" transform="translate(0 0.78125)"/>
       <use xlink:href="#DejaVuSans-31" transform="translate(39.208984 -15.625) scale(0.7)"/>
      </g>
     </g>
    </g>
    <g id="xtick_12">
     <g id="line2d_48">
      <g>
       <use xlink:href="#m80216fa0e1" x="406.163492" y="315.992" style="stroke: #000000; stroke-width: 0.8"/>
      </g>
     </g>
     <g id="text_21">
      <!-- $t_{2}$ -->
      <g transform="translate(401.813492 330.590437) scale(0.1 -0.1)">
       <use xlink:href="#DejaVuSans-Oblique-74" transform="translate(0 0.78125)"/>
       <use xlink:href="#DejaVuSans-32" transform="translate(39.208984 -15.625) scale(0.7)"/>
      </g>
     </g>
    </g>
   </g>
   <g id="matplotlib.axis_8">
    <g id="ytick_4">
     <g id="line2d_49">
      <g>
       <use xlink:href="#ma218d185f5" x="249.1" y="315.992" style="stroke: #000000; stroke-width: 0.8"/>
      </g>
     </g>
     <g id="text_22">
      <!-- 0 -->
      <g transform="translate(235.7375 319.791219) scale(0.1 -0.1)">
       <use xlink:href="#DejaVuSans-30"/>
      </g>
     </g>
    </g>
   </g>
   <g id="line2d_50">
    <path d="M 249.1 215.481524 
L 253.187739 221.808491 
L 257.1497 227.534712 
L 261.048774 232.779782 
L 264.822071 237.487052 
L 268.53248 241.762318 
L 272.117112 245.559707 
L 275.638856 248.971823 
L 279.097712 252.015585 
L 282.493679 254.707611 
L 285.826759 257.064217 
L 289.034061 259.064807 
L 292.241364 260.803445 
L 295.385778 262.253695 
L 298.467304 263.430663 
L 301.485941 264.349155 
L 304.504579 265.035606 
L 307.460329 265.482918 
L 310.416078 265.707757 
L 311.925397 265.736762 
L 311.925397 265.736762 
" clip-path="url(#p54ade1061d)" style="fill: none; stroke: #ff0000; stroke-width: 1.5; stroke-linecap: square"/>
   </g>
   <g id="line2d_51">
    <path d="M 249.1 315.992 
L 253.187739 309.665033 
L 257.1497 303.938812 
L 261.048774 298.693741 
L 264.822071 293.986472 
L 268.53248 289.711206 
L 272.117112 285.913817 
L 275.638856 282.501701 
L 279.097712 279.457939 
L 282.493679 276.765912 
L 285.826759 274.409307 
L 289.034061 272.408717 
L 292.241364 270.670079 
L 295.385778 269.219829 
L 298.467304 268.042861 
L 301.485941 267.124369 
L 304.504579 266.437917 
L 307.460329 265.990606 
L 310.416078 265.765767 
L 311.925397 265.736762 
L 311.925397 265.736762 
" clip-path="url(#p54ade1061d)" style="fill: none; stroke: #0000ff; stroke-width: 1.5; stroke-linecap: square"/>
   </g>
   <g id="line2d_52">
    <path d="M 311.925397 265.736762 
L 343.338095 265.736762 
L 343.338095 265.736762 
" clip-path="url(#p54ade1061d)" style="fill: none; stroke: #800080; stroke-width: 1.5; stroke-linecap: square"/>
   </g>
   <g id="line2d_53">
    <path d="M 311.925397 315.992 
L 311.925397 210.456 
" clip-path="url(#p54ade1061d)" style="fill: none; stroke-dasharray: 1.5,1.5; stroke-dashoffset: 0; stroke: #000000; stroke-width: 1.5"/>
   </g>
   <g id="line2d_54">
    <path d="M 343.338095 300.915429 
L 348.998041 298.321294 
L 354.657987 295.971889 
L 360.255044 293.889255 
L 365.789213 292.065324 
L 371.323382 290.475367 
L 376.794663 289.133477 
L 382.265944 288.020275 
L 387.674336 287.144626 
L 393.082729 286.492436 
L 398.491121 286.063706 
L 403.899514 285.858436 
L 406.163492 285.838857 
L 406.163492 285.838857 
" clip-path="url(#p54ade1061d)" style="fill: none; stroke: #ff0000; stroke-width: 1.5; stroke-linecap: square"/>
   </g>
   <g id="line2d_55">
    <path d="M 343.338095 270.762286 
L 348.998041 273.35642 
L 354.657987 275.705825 
L 360.255044 277.788459 
L 365.789213 279.61239 
L 371.323382 281.202348 
L 376.794663 282.544237 
L 382.265944 283.65744 
L 387.674336 284.533088 
L 393.082729 285.185278 
L 398.491121 285.614008 
L 403.899514 285.819279 
L 406.163492 285.838857 
L 406.163492 285.838857 
" clip-path="url(#p54ade1061d)" style="fill: none; stroke: #0000ff; stroke-width: 1.5; stroke-linecap: square"/>
   </g>
   <g id="line2d_56">
    <path d="M 406.163492 285.838857 
L 437.57619 285.838857 
L 437.57619 285.838857 
" clip-path="url(#p54ade1061d)" style="fill: none; stroke: #800080; stroke-width: 1.5; stroke-linecap: square"/>
   </g>
   <g id="line2d_57">
    <path d="M 406.163492 315.992 
L 406.163492 210.456 
" clip-path="url(#p54ade1061d)" style="fill: none; stroke-dasharray: 1.5,1.5; stroke-dashoffset: 0; stroke: #000000; stroke-width: 1.5"/>
   </g>
   <g id="line2d_58">
    <g>
     <use xlink:href="#m7d37b32632" x="447" y="315.992" style="stroke: #000000; stroke-linejoin: miter"/>
    </g>
   </g>
   <g id="line2d_59">
    <g>
     <use xlink:href="#m8212750f62" x="249.1" y="210.456" style="stroke: #000000; stroke-linejoin: miter"/>
    </g>
   </g>
   <g id="patch_19">
    <path d="M 249.1 315.992 
L 249.1 210.456 
" style="fill: none; stroke: #000000; stroke-width: 0.8; stroke-linejoin: miter; stroke-linecap: square"/>
   </g>
   <g id="patch_20">
    <path d="M 447 315.992 
L 447 210.456 
" style="fill: none"/>
   </g>
   <g id="patch_21">
    <path d="M 249.1 315.992 
L 447 315.992 
" style="fill: none; stroke: #000000; stroke-width: 0.8; stroke-linejoin: miter; stroke-linecap: square"/>
   </g>
   <g id="patch_22">
    <path d="M 249.1 210.456 
L 447 210.456 
" style="fill: none"/>
   </g>
   <g id="text_23">
    <!-- lower pressure, $N_{gas}^L &gt; N_{gas}^R$ -->
    <g transform="translate(268.19 204.456) scale(0.12 -0.12)">
     <use xlink:href="#DejaVuSans-6c" transform="translate(0 0.684375)"/>
     <use xlink:href="#DejaVuSans-6f" transform="translate(27.783203 0.684375)"/>
     <use xlink:href="#DejaVuSans-77" transform="translate(88.964844 0.684375)"/>
     <use xlink:href="#DejaVuSans-65" transform="translate(170.751953 0.684375)"/>
     <use xlink:href="#DejaVuSans-72" transform="translate(232.275391 0.684375)"/>
     <use xlink:href="#DejaVuSans-20" transform="translate(273.388672 0.684375)"/>
     <use xlink:href="#DejaVuSans-70" transform="translate(305.175781 0.684375)"/>
     <use xlink:href="#DejaVuSans-72" transform="translate(368.652344 0.684375)"/>
     <use xlink:href="#DejaVuSans-65" transform="translate(409.765625 0.684375)"/>
     <use xlink:href="#DejaVuSans-73" transform="translate(471.289062 0.684375)"/>
     <use xlink:href="#DejaVuSans-73" transform="translate(523.388672 0.684375)"/>
     <use xlink:href="#DejaVuSans-75" transform="translate(575.488281 0.684375)"/>
     <use xlink:href="#DejaVuSans-72" transform="translate(638.867188 0.684375)"/>
     <use xlink:href="#DejaVuSans-65" transform="translate(679.980469 0.684375)"/>
     <use xlink:href="#DejaVuSans-2c" transform="translate(741.503906 0.684375)"/>
     <use xlink:href="#DejaVuSans-20" transform="translate(773.291016 0.684375)"/>
     <use xlink:href="#DejaVuSans-Oblique-4e" transform="translate(805.078125 0.684375)"/>
     <use xlink:href="#DejaVuSans-Oblique-4c" transform="translate(886.899583 38.965625) scale(0.7)"/>
     <use xlink:href="#DejaVuSans-Oblique-67" transform="translate(879.882812 -26.659375) scale(0.7)"/>
     <use xlink:href="#DejaVuSans-Oblique-61" transform="translate(924.316406 -26.659375) scale(0.7)"/>
     <use xlink:href="#DejaVuSans-Oblique-73" transform="translate(967.211914 -26.659375) scale(0.7)"/>
     <use xlink:href="#DejaVuSans-3e" transform="translate(1025.898438 0.684375)"/>
     <use xlink:href="#DejaVuSans-Oblique-4e" transform="translate(1129.169922 0.684375)"/>
     <use xlink:href="#DejaVuSans-Oblique-52" transform="translate(1210.99138 38.965625) scale(0.7)"/>
     <use xlink:href="#DejaVuSans-Oblique-67" transform="translate(1203.974609 -26.659375) scale(0.7)"/>
     <use xlink:href="#DejaVuSans-Oblique-61" transform="translate(1248.408203 -26.659375) scale(0.7)"/>
     <use xlink:href="#DejaVuSans-Oblique-73" transform="translate(1291.303711 -26.659375) scale(0.7)"/>
    </g>
   </g>
  </g>
  <g id="text_24">
   <!-- balance move (pressure) -->
   <g transform="translate(155.612813 16.030125) scale(0.12 -0.12)">
    <defs>
     <path id="DejaVuSans-62" d="M 3116 1747 
Q 3116 2381 2855 2742 
Q 2594 3103 2138 3103 
Q 1681 3103 1420 2742 
Q 1159 2381 1159 1747 
Q 1159 1113 1420 752 
Q 1681 391 2138 391 
Q 2594 391 2855 752 
Q 3116 1113 3116 1747 
z
M 1159 2969 
Q 1341 3281 1617 3432 
Q 1894 3584 2278 3584 
Q 2916 3584 3314 3078 
Q 3713 2572 3713 1747 
Q 3713 922 3314 415 
Q 2916 -91 2278 -91 
Q 1894 -91 1617 61 
Q 1341 213 1159 525 
L 1159 0 
L 581 0 
L 581 4863 
L 1159 4863 
L 1159 2969 
z
" transform="scale(0.015625)"/>
     <path id="DejaVuSans-61" d="M 2194 1759 
Q 1497 1759 1228 1600 
Q 959 1441 959 1056 
Q 959 750 1161 570 
Q 1363 391 1709 391 
Q 2188 391 2477 730 
Q 2766 1069 2766 1631 
L 2766 1759 
L 2194 1759 
z
M 3341 1997 
L 3341 0 
L 2766 0 
L 2766 531 
Q 2569 213 2275 61 
Q 1981 -91 1556 -91 
Q 1019 -91 701 211 
Q 384 513 384 1019 
Q 384 1609 779 1909 
Q 1175 2209 1959 2209 
L 2766 2209 
L 2766 2266 
Q 2766 2663 2505 2880 
Q 2244 3097 1772 3097 
Q 1472 3097 1187 3025 
Q 903 2953 641 2809 
L 641 3341 
Q 956 3463 1253 3523 
Q 1550 3584 1831 3584 
Q 2591 3584 2966 3190 
Q 3341 2797 3341 1997 
z
" transform="scale(0.015625)"/>
     <path id="DejaVuSans-6e" d="M 3513 2113 
L 3513 0 
L 2938 0 
L 2938 2094 
Q 2938 2591 2744 2837 
Q 2550 3084 2163 3084 
Q 1697 3084 1428 2787 
Q 1159 2491 1159 1978 
L 1159 0 
L 581 0 
L 581 3500 
L 1159 3500 
L 1159 2956 
Q 1366 3272 1645 3428 
Q 1925 3584 2291 3584 
Q 2894 3584 3203 3211 
Q 3513 2838 3513 2113 
z
" transform="scale(0.015625)"/>
     <path id="DejaVuSans-63" d="M 3122 3366 
L 3122 2828 
Q 2878 2963 2633 3030 
Q 2388 3097 2138 3097 
Q 1578 3097 1268 2742 
Q 959 2388 959 1747 
Q 959 1106 1268 751 
Q 1578 397 2138 397 
Q 2388 397 2633 464 
Q 2878 531 3122 666 
L 3122 134 
Q 2881 22 2623 -34 
Q 2366 -91 2075 -91 
Q 1284 -91 818 406 
Q 353 903 353 1747 
Q 353 2603 823 3093 
Q 1294 3584 2113 3584 
Q 2378 3584 2631 3529 
Q 2884 3475 3122 3366 
z
" transform="scale(0.015625)"/>
     <path id="DejaVuSans-6d" d="M 3328 2828 
Q 3544 3216 3844 3400 
Q 4144 3584 4550 3584 
Q 5097 3584 5394 3201 
Q 5691 2819 5691 2113 
L 5691 0 
L 5113 0 
L 5113 2094 
Q 5113 2597 4934 2840 
Q 4756 3084 4391 3084 
Q 3944 3084 3684 2787 
Q 3425 2491 3425 1978 
L 3425 0 
L 2847 0 
L 2847 2094 
Q 2847 2600 2669 2842 
Q 2491 3084 2119 3084 
Q 1678 3084 1418 2786 
Q 1159 2488 1159 1978 
L 1159 0 
L 581 0 
L 581 3500 
L 1159 3500 
L 1159 2956 
Q 1356 3278 1631 3431 
Q 1906 3584 2284 3584 
Q 2666 3584 2933 3390 
Q 3200 3197 3328 2828 
z
" transform="scale(0.015625)"/>
     <path id="DejaVuSans-76" d="M 191 3500 
L 800 3500 
L 1894 563 
L 2988 3500 
L 3597 3500 
L 2284 0 
L 1503 0 
L 191 3500 
z
" transform="scale(0.015625)"/>
     <path id="DejaVuSans-28" d="M 1984 4856 
Q 1566 4138 1362 3434 
Q 1159 2731 1159 2009 
Q 1159 1288 1364 580 
Q 1569 -128 1984 -844 
L 1484 -844 
Q 1016 -109 783 600 
Q 550 1309 550 2009 
Q 550 2706 781 3412 
Q 1013 4119 1484 4856 
L 1984 4856 
z
" transform="scale(0.015625)"/>
     <path id="DejaVuSans-29" d="M 513 4856 
L 1013 4856 
Q 1481 4119 1714 3412 
Q 1947 2706 1947 2009 
Q 1947 1309 1714 600 
Q 1481 -109 1013 -844 
L 513 -844 
Q 928 -128 1133 580 
Q 1338 1288 1338 2009 
Q 1338 2731 1133 3434 
Q 928 4138 513 4856 
z
" transform="scale(0.015625)"/>
    </defs>
    <use xlink:href="#DejaVuSans-62"/>
    <use xlink:href="#DejaVuSans-61" x="63.476562"/>
    <use xlink:href="#DejaVuSans-6c" x="124.755859"/>
    <use xlink:href="#DejaVuSans-61" x="152.539062"/>
    <use xlink:href="#DejaVuSans-6e" x="213.818359"/>
    <use xlink:href="#DejaVuSans-63" x="277.197266"/>
    <use xlink:href="#DejaVuSans-65" x="332.177734"/>
    <use xlink:href="#DejaVuSans-20" x="393.701172"/>
    <use xlink:href="#DejaVuSans-6d" x="425.488281"/>
    <use xlink:href="#DejaVuSans-6f" x="522.900391"/>
    <use xlink:href="#DejaVuSans-76" x="584.082031"/>
    <use xlink:href="#DejaVuSans-65" x="643.261719"/>
    <use xlink:href="#DejaVuSans-20" x="704.785156"/>
    <use xlink:href="#DejaVuSans-28" x="736.572266"/>
    <use xlink:href="#DejaVuSans-70" x="775.585938"/>
    <use xlink:href="#DejaVuSans-72" x="839.0625"/>
    <use xlink:href="#DejaVuSans-65" x="877.925781"/>
    <use xlink:href="#DejaVuSans-73" x="939.449219"/>
    <use xlink:href="#DejaVuSans-73" x="991.548828"/>
    <use xlink:href="#DejaVuSans-75" x="1043.648438"/>
    <use xlink:href="#DejaVuSans-72" x="1107.027344"/>
    <use xlink:href="#DejaVuSans-65" x="1145.890625"/>
    <use xlink:href="#DejaVuSans-29" x="1207.414062"/>
   </g>
  </g>
 </g>
 <defs>
  <clipPath id="pbf7f934b32">
   <rect x="24.1" y="54.936" width="197.9" height="105.536"/>
  </clipPath>
  <clipPath id="pa45f8a0000">
   <rect x="249.1" y="54.936" width="197.9" height="105.536"/>
  </clipPath>
  <clipPath id="pa406804ed2">
   <rect x="24.1" y="210.456" width="197.9" height="105.536"/>
  </clipPath>
  <clipPath id="p54ade1061d">
   <rect x="249.1" y="210.456" width="197.9" height="105.536"/>
  </clipPath>
 </defs>
</svg>
