<?xml version="1.0" encoding="utf-8" standalone="no"?>
<!DOCTYPE svg PUBLIC "-//W3C//DTD SVG 1.1//EN"
  "http://www.w3.org/Graphics/SVG/1.1/DTD/svg11.dtd">
<svg xmlns:xlink="http://www.w3.org/1999/xlink" width="460.8pt" height="345.6pt" viewBox="0 0 460.8 345.6" xmlns="http://www.w3.org/2000/svg" version="1.1">
 <metadata>
  <rdf:RDF xmlns:dc="http://purl.org/dc/elements/1.1/" xmlns:cc="http://creativecommons.org/ns#" xmlns:rdf="http://www.w3.org/1999/02/22-rdf-syntax-ns#">
   <cc:Work>
    <dc:type rdf:resource="http://purl.org/dc/dcmitype/StillImage"/>
    <dc:date>2022-11-06T19:02:46.251949</dc:date>
    <dc:format>image/svg+xml</dc:format>
    <dc:creator>
     <cc:Agent>
      <dc:title>Matplotlib v3.6.1, https://matplotlib.org/</dc:title>
     </cc:Agent>
    </dc:creator>
   </cc:Work>
  </rdf:RDF>
 </metadata>
 <defs>
  <style type="text/css">*{stroke-linejoin: round; stroke-linecap: butt}</style>
 </defs>
 <g id="figure_1">
  <g id="patch_1">
   <path d="M 0 345.6 
L 460.8 345.6 
L 460.8 0 
L 0 0 
z
" style="fill: #ffffff"/>
  </g>
  <g id="axes_1">
   <g id="patch_2">
    <path d="M 67.57 317.72 
L 447 317.72 
L 447 37.56 
L 67.57 37.56 
z
" style="fill: #ffffff"/>
   </g>
   <g id="patch_3">
    <path d="M 127.796984 136.971613 
L 138.637841 161.372645 
L 131.410603 161.372645 
L 131.410603 227.345806 
L 124.183365 227.345806 
L 124.183365 161.372645 
L 116.956127 161.372645 
z
" clip-path="url(#p45e2ec117b)" style="fill: #808080; stroke: #808080; stroke-linejoin: miter"/>
   </g>
   <g id="matplotlib.axis_1">
    <g id="xtick_1">
     <g id="line2d_1">
      <defs>
       <path id="m92cc76b1ce" d="M 0 0 
L 0 3.5 
" style="stroke: #000000; stroke-width: 0.8"/>
      </defs>
      <g>
       <use xlink:href="#m92cc76b1ce" x="67.57" y="317.72" style="stroke: #000000; stroke-width: 0.8"/>
      </g>
     </g>
     <g id="text_1">
      <!-- 0 -->
      <g transform="translate(64.38875 332.318437) scale(0.1 -0.1)">
       <defs>
        <path id="DejaVuSans-30" d="M 2034 4250 
Q 1547 4250 1301 3770 
Q 1056 3291 1056 2328 
Q 1056 1369 1301 889 
Q 1547 409 2034 409 
Q 2525 409 2770 889 
Q 3016 1369 3016 2328 
Q 3016 3291 2770 3770 
Q 2525 4250 2034 4250 
z
M 2034 4750 
Q 2819 4750 3233 4129 
Q 3647 3509 3647 2328 
Q 3647 1150 3233 529 
Q 2819 -91 2034 -91 
Q 1250 -91 836 529 
Q 422 1150 422 2328 
Q 422 3509 836 4129 
Q 1250 4750 2034 4750 
z
" transform="scale(0.015625)"/>
       </defs>
       <use xlink:href="#DejaVuSans-30"/>
      </g>
     </g>
    </g>
   </g>
   <g id="matplotlib.axis_2">
    <g id="ytick_1">
     <g id="line2d_2">
      <defs>
       <path id="m7d27bfed4f" d="M 0 0 
L -3.5 0 
" style="stroke: #000000; stroke-width: 0.8"/>
      </defs>
      <g>
       <use xlink:href="#m7d27bfed4f" x="67.57" y="227.345806" style="stroke: #000000; stroke-width: 0.8"/>
      </g>
     </g>
     <g id="text_2">
      <!-- start -->
      <g transform="translate(37.280938 231.145025) scale(0.1 -0.1)">
       <defs>
        <path id="DejaVuSans-73" d="M 2834 3397 
L 2834 2853 
Q 2591 2978 2328 3040 
Q 2066 3103 1784 3103 
Q 1356 3103 1142 2972 
Q 928 2841 928 2578 
Q 928 2378 1081 2264 
Q 1234 2150 1697 2047 
L 1894 2003 
Q 2506 1872 2764 1633 
Q 3022 1394 3022 966 
Q 3022 478 2636 193 
Q 2250 -91 1575 -91 
Q 1294 -91 989 -36 
Q 684 19 347 128 
L 347 722 
Q 666 556 975 473 
Q 1284 391 1588 391 
Q 1994 391 2212 530 
Q 2431 669 2431 922 
Q 2431 1156 2273 1281 
Q 2116 1406 1581 1522 
L 1381 1569 
Q 847 1681 609 1914 
Q 372 2147 372 2553 
Q 372 3047 722 3315 
Q 1072 3584 1716 3584 
Q 2034 3584 2315 3537 
Q 2597 3491 2834 3397 
z
" transform="scale(0.015625)"/>
        <path id="DejaVuSans-74" d="M 1172 4494 
L 1172 3500 
L 2356 3500 
L 2356 3053 
L 1172 3053 
L 1172 1153 
Q 1172 725 1289 603 
Q 1406 481 1766 481 
L 2356 481 
L 2356 0 
L 1766 0 
Q 1100 0 847 248 
Q 594 497 594 1153 
L 594 3053 
L 172 3053 
L 172 3500 
L 594 3500 
L 594 4494 
L 1172 4494 
z
" transform="scale(0.015625)"/>
        <path id="DejaVuSans-61" d="M 2194 1759 
Q 1497 1759 1228 1600 
Q 959 1441 959 1056 
Q 959 750 1161 570 
Q 1363 391 1709 391 
Q 2188 391 2477 730 
Q 2766 1069 2766 1631 
L 2766 1759 
L 2194 1759 
z
M 3341 1997 
L 3341 0 
L 2766 0 
L 2766 531 
Q 2569 213 2275 61 
Q 1981 -91 1556 -91 
Q 1019 -91 701 211 
Q 384 513 384 1019 
Q 384 1609 779 1909 
Q 1175 2209 1959 2209 
L 2766 2209 
L 2766 2266 
Q 2766 2663 2505 2880 
Q 2244 3097 1772 3097 
Q 1472 3097 1187 3025 
Q 903 2953 641 2809 
L 641 3341 
Q 956 3463 1253 3523 
Q 1550 3584 1831 3584 
Q 2591 3584 2966 3190 
Q 3341 2797 3341 1997 
z
" transform="scale(0.015625)"/>
        <path id="DejaVuSans-72" d="M 2631 2963 
Q 2534 3019 2420 3045 
Q 2306 3072 2169 3072 
Q 1681 3072 1420 2755 
Q 1159 2438 1159 1844 
L 1159 0 
L 581 0 
L 581 3500 
L 1159 3500 
L 1159 2956 
Q 1341 3275 1631 3429 
Q 1922 3584 2338 3584 
Q 2397 3584 2469 3576 
Q 2541 3569 2628 3553 
L 2631 2963 
z
" transform="scale(0.015625)"/>
       </defs>
       <use xlink:href="#DejaVuSans-73"/>
       <use xlink:href="#DejaVuSans-74" x="52.099609"/>
       <use xlink:href="#DejaVuSans-61" x="91.308594"/>
       <use xlink:href="#DejaVuSans-72" x="152.587891"/>
       <use xlink:href="#DejaVuSans-74" x="193.701172"/>
      </g>
     </g>
    </g>
    <g id="ytick_2">
     <g id="line2d_3">
      <g>
       <use xlink:href="#m7d27bfed4f" x="67.57" y="46.597419" style="stroke: #000000; stroke-width: 0.8"/>
      </g>
     </g>
     <g id="text_3">
      <!-- activation -->
      <g transform="translate(11.043438 50.396638) scale(0.1 -0.1)">
       <defs>
        <path id="DejaVuSans-63" d="M 3122 3366 
L 3122 2828 
Q 2878 2963 2633 3030 
Q 2388 3097 2138 3097 
Q 1578 3097 1268 2742 
Q 959 2388 959 1747 
Q 959 1106 1268 751 
Q 1578 397 2138 397 
Q 2388 397 2633 464 
Q 2878 531 3122 666 
L 3122 134 
Q 2881 22 2623 -34 
Q 2366 -91 2075 -91 
Q 1284 -91 818 406 
Q 353 903 353 1747 
Q 353 2603 823 3093 
Q 1294 3584 2113 3584 
Q 2378 3584 2631 3529 
Q 2884 3475 3122 3366 
z
" transform="scale(0.015625)"/>
        <path id="DejaVuSans-69" d="M 603 3500 
L 1178 3500 
L 1178 0 
L 603 0 
L 603 3500 
z
M 603 4863 
L 1178 4863 
L 1178 4134 
L 603 4134 
L 603 4863 
z
" transform="scale(0.015625)"/>
        <path id="DejaVuSans-76" d="M 191 3500 
L 800 3500 
L 1894 563 
L 2988 3500 
L 3597 3500 
L 2284 0 
L 1503 0 
L 191 3500 
z
" transform="scale(0.015625)"/>
        <path id="DejaVuSans-6f" d="M 1959 3097 
Q 1497 3097 1228 2736 
Q 959 2375 959 1747 
Q 959 1119 1226 758 
Q 1494 397 1959 397 
Q 2419 397 2687 759 
Q 2956 1122 2956 1747 
Q 2956 2369 2687 2733 
Q 2419 3097 1959 3097 
z
M 1959 3584 
Q 2709 3584 3137 3096 
Q 3566 2609 3566 1747 
Q 3566 888 3137 398 
Q 2709 -91 1959 -91 
Q 1206 -91 779 398 
Q 353 888 353 1747 
Q 353 2609 779 3096 
Q 1206 3584 1959 3584 
z
" transform="scale(0.015625)"/>
        <path id="DejaVuSans-6e" d="M 3513 2113 
L 3513 0 
L 2938 0 
L 2938 2094 
Q 2938 2591 2744 2837 
Q 2550 3084 2163 3084 
Q 1697 3084 1428 2787 
Q 1159 2491 1159 1978 
L 1159 0 
L 581 0 
L 581 3500 
L 1159 3500 
L 1159 2956 
Q 1366 3272 1645 3428 
Q 1925 3584 2291 3584 
Q 2894 3584 3203 3211 
Q 3513 2838 3513 2113 
z
" transform="scale(0.015625)"/>
       </defs>
       <use xlink:href="#DejaVuSans-61"/>
       <use xlink:href="#DejaVuSans-63" x="61.279297"/>
       <use xlink:href="#DejaVuSans-74" x="116.259766"/>
       <use xlink:href="#DejaVuSans-69" x="155.46875"/>
       <use xlink:href="#DejaVuSans-76" x="183.251953"/>
       <use xlink:href="#DejaVuSans-61" x="242.431641"/>
       <use xlink:href="#DejaVuSans-74" x="303.710938"/>
       <use xlink:href="#DejaVuSans-69" x="342.919922"/>
       <use xlink:href="#DejaVuSans-6f" x="370.703125"/>
       <use xlink:href="#DejaVuSans-6e" x="431.884766"/>
      </g>
     </g>
    </g>
    <g id="ytick_3">
     <g id="line2d_4">
      <g>
       <use xlink:href="#m7d27bfed4f" x="67.57" y="136.971613" style="stroke: #000000; stroke-width: 0.8"/>
      </g>
     </g>
     <g id="text_4">
      <!-- end -->
      <g transform="translate(41.730938 140.770832) scale(0.1 -0.1)">
       <defs>
        <path id="DejaVuSans-65" d="M 3597 1894 
L 3597 1613 
L 953 1613 
Q 991 1019 1311 708 
Q 1631 397 2203 397 
Q 2534 397 2845 478 
Q 3156 559 3463 722 
L 3463 178 
Q 3153 47 2828 -22 
Q 2503 -91 2169 -91 
Q 1331 -91 842 396 
Q 353 884 353 1716 
Q 353 2575 817 3079 
Q 1281 3584 2069 3584 
Q 2775 3584 3186 3129 
Q 3597 2675 3597 1894 
z
M 3022 2063 
Q 3016 2534 2758 2815 
Q 2500 3097 2075 3097 
Q 1594 3097 1305 2825 
Q 1016 2553 972 2059 
L 3022 2063 
z
" transform="scale(0.015625)"/>
        <path id="DejaVuSans-64" d="M 2906 2969 
L 2906 4863 
L 3481 4863 
L 3481 0 
L 2906 0 
L 2906 525 
Q 2725 213 2448 61 
Q 2172 -91 1784 -91 
Q 1150 -91 751 415 
Q 353 922 353 1747 
Q 353 2572 751 3078 
Q 1150 3584 1784 3584 
Q 2172 3584 2448 3432 
Q 2725 3281 2906 2969 
z
M 947 1747 
Q 947 1113 1208 752 
Q 1469 391 1925 391 
Q 2381 391 2643 752 
Q 2906 1113 2906 1747 
Q 2906 2381 2643 2742 
Q 2381 3103 1925 3103 
Q 1469 3103 1208 2742 
Q 947 2381 947 1747 
z
" transform="scale(0.015625)"/>
       </defs>
       <use xlink:href="#DejaVuSans-65"/>
       <use xlink:href="#DejaVuSans-6e" x="61.523438"/>
       <use xlink:href="#DejaVuSans-64" x="124.902344"/>
      </g>
     </g>
    </g>
   </g>
   <g id="line2d_5">
    <path d="M 67.57 227.345806 
L 68.786707 227.345806 
L 70.003414 227.345806 
L 71.22012 227.345806 
L 72.436827 227.345806 
L 73.653534 227.345806 
L 74.870241 227.345806 
L 76.086947 227.345806 
L 77.303654 227.345806 
L 78.520361 227.345806 
L 79.737068 227.345806 
L 80.953774 227.345806 
L 82.170481 227.345806 
L 83.387188 227.345806 
L 84.603895 227.345806 
L 85.820601 227.345806 
L 87.037308 227.345806 
L 88.254015 227.345806 
L 89.470722 227.345806 
L 90.687428 227.345806 
L 91.904135 227.345806 
L 93.120842 227.345806 
L 94.337549 227.345806 
L 95.554255 227.345806 
L 96.770962 227.345806 
L 97.987669 227.345806 
L 99.204376 227.345806 
L 100.421082 227.345806 
L 101.637789 227.345806 
L 102.854496 227.345806 
L 104.071203 227.345806 
L 105.287909 227.345806 
L 106.504616 227.345806 
L 107.721323 227.345806 
L 108.93803 227.345806 
L 110.154736 227.345806 
L 111.371443 227.345806 
L 112.58815 227.345806 
L 113.804857 227.345806 
L 115.021563 227.345806 
L 116.23827 227.345806 
L 117.454977 227.345806 
L 118.671684 227.345806 
L 119.88839 227.345806 
L 121.105097 227.345806 
L 122.321804 227.345806 
L 123.538511 227.345806 
L 124.755217 227.345806 
L 125.971924 227.345806 
L 127.188631 227.345806 
L 128.405338 227.345806 
L 129.622044 227.345806 
L 130.838751 227.345806 
L 132.055458 227.345806 
L 133.272165 227.345806 
L 134.488871 227.345806 
L 135.705578 227.345806 
L 136.922285 227.345806 
L 138.138992 227.345806 
L 139.355698 227.345806 
L 140.572405 227.345806 
L 141.789112 227.345806 
L 143.005819 227.345806 
L 144.222525 227.345806 
L 145.439232 227.345806 
L 146.655939 227.345806 
L 147.872646 227.345806 
L 149.089352 227.345806 
L 150.306059 227.345806 
L 151.522766 227.345806 
L 152.739473 227.345806 
L 153.956179 227.345806 
L 155.172886 227.345806 
L 156.389593 227.345806 
L 157.6063 227.345806 
L 158.823006 227.345806 
L 160.039713 227.345806 
L 161.25642 227.345806 
L 162.473127 227.345806 
L 163.689833 227.345806 
L 164.90654 227.345806 
L 166.123247 227.345806 
L 167.339954 227.345806 
L 168.55666 227.345806 
L 169.773367 227.345806 
L 170.990074 227.345806 
L 172.206781 227.345806 
L 173.423487 227.345806 
L 174.640194 227.345806 
L 175.856901 227.345806 
L 177.073608 227.345806 
L 178.290314 227.345806 
L 179.507021 227.345806 
L 180.723728 227.345806 
L 181.940435 227.345806 
L 183.157141 227.345806 
L 184.373848 227.345806 
L 185.590555 227.345806 
L 186.807262 227.345806 
L 188.023968 227.345806 
" clip-path="url(#p45e2ec117b)" style="fill: none; stroke: #0000ff; stroke-width: 1.5; stroke-linecap: square"/>
   </g>
   <g id="line2d_6">
    <path d="M 308.477937 136.971613 
L 309.694643 136.971613 
L 310.91135 136.971613 
L 312.128057 136.971613 
L 313.344764 136.971613 
L 314.56147 136.971613 
L 315.778177 136.971613 
L 316.994884 136.971613 
L 318.211591 136.971613 
L 319.428297 136.971613 
L 320.645004 136.971613 
L 321.861711 136.971613 
L 323.078418 136.971613 
L 324.295124 136.971613 
L 325.511831 136.971613 
L 326.728538 136.971613 
L 327.945245 136.971613 
L 329.161951 136.971613 
L 330.378658 136.971613 
L 331.595365 136.971613 
L 332.812072 136.971613 
L 334.028778 136.971613 
L 335.245485 136.971613 
L 336.462192 136.971613 
L 337.678899 136.971613 
L 338.895605 136.971613 
L 340.112312 136.971613 
L 341.329019 136.971613 
L 342.545726 136.971613 
L 343.762432 136.971613 
L 344.979139 136.971613 
L 346.195846 136.971613 
L 347.412553 136.971613 
L 348.629259 136.971613 
L 349.845966 136.971613 
L 351.062673 136.971613 
L 352.27938 136.971613 
L 353.496086 136.971613 
L 354.712793 136.971613 
L 355.9295 136.971613 
L 357.146207 136.971613 
L 358.362913 136.971613 
L 359.57962 136.971613 
L 360.796327 136.971613 
L 362.013034 136.971613 
L 363.22974 136.971613 
L 364.446447 136.971613 
L 365.663154 136.971613 
L 366.879861 136.971613 
L 368.096567 136.971613 
L 369.313274 136.971613 
L 370.529981 136.971613 
L 371.746688 136.971613 
L 372.963394 136.971613 
L 374.180101 136.971613 
L 375.396808 136.971613 
L 376.613515 136.971613 
L 377.830221 136.971613 
L 379.046928 136.971613 
L 380.263635 136.971613 
L 381.480342 136.971613 
L 382.697048 136.971613 
L 383.913755 136.971613 
L 385.130462 136.971613 
L 386.347169 136.971613 
L 387.563875 136.971613 
L 388.780582 136.971613 
L 389.997289 136.971613 
L 391.213996 136.971613 
L 392.430702 136.971613 
L 393.647409 136.971613 
L 394.864116 136.971613 
L 396.080823 136.971613 
L 397.297529 136.971613 
L 398.514236 136.971613 
L 399.730943 136.971613 
L 400.94765 136.971613 
L 402.164356 136.971613 
L 403.381063 136.971613 
L 404.59777 136.971613 
L 405.814477 136.971613 
L 407.031183 136.971613 
L 408.24789 136.971613 
L 409.464597 136.971613 
L 410.681304 136.971613 
L 411.89801 136.971613 
L 413.114717 136.971613 
L 414.331424 136.971613 
L 415.548131 136.971613 
L 416.764837 136.971613 
L 417.981544 136.971613 
L 419.198251 136.971613 
L 420.414958 136.971613 
L 421.631664 136.971613 
L 422.848371 136.971613 
L 424.065078 136.971613 
L 425.281785 136.971613 
L 426.498491 136.971613 
L 427.715198 136.971613 
L 428.931905 136.971613 
" clip-path="url(#p45e2ec117b)" style="fill: none; stroke: #ff0000; stroke-width: 1.5; stroke-linecap: square"/>
   </g>
   <g id="line2d_7">
    <path d="M 188.023968 227.345806 
L 189.240675 221.166079 
L 190.457382 215.093839 
L 191.674089 209.129085 
L 192.890795 203.271819 
L 194.107502 197.522039 
L 195.324209 191.879746 
L 196.540916 186.34494 
L 197.757622 180.917621 
L 198.974329 175.597789 
L 200.191036 170.385443 
L 201.407743 165.280585 
L 202.624449 160.283213 
L 203.841156 155.393328 
L 205.057863 150.61093 
L 206.27457 145.936019 
L 207.491276 141.368595 
L 208.707983 136.908658 
L 209.92469 132.556207 
L 211.141397 128.311244 
L 212.358103 124.173767 
L 213.57481 120.143777 
L 214.791517 116.221274 
L 216.008224 112.406258 
L 217.22493 108.698729 
L 218.441637 105.098687 
L 219.658344 101.606131 
L 220.875051 98.221063 
L 222.091757 94.943481 
L 223.308464 91.773386 
L 224.525171 88.710778 
L 225.741878 85.755657 
L 226.958584 82.908022 
L 228.175291 80.167875 
L 229.391998 77.535214 
L 230.608705 75.010041 
L 231.825411 72.592354 
L 233.042118 70.282154 
L 234.258825 68.079441 
L 235.475532 65.984215 
L 236.692238 63.996475 
L 237.908945 62.116223 
L 239.125652 60.343457 
L 240.342359 58.678179 
L 241.559065 57.120387 
L 242.775772 55.670082 
L 243.992479 54.327264 
L 245.209186 53.091932 
L 246.425892 51.964088 
L 247.642599 50.943731 
L 248.859306 50.03086 
L 250.076013 49.225476 
L 251.292719 48.527579 
L 252.509426 47.937169 
L 253.726133 47.454246 
L 254.94284 47.07881 
L 256.159546 46.81086 
L 257.376253 46.650398 
L 258.59296 46.597422 
L 259.809667 46.651933 
L 261.026373 46.813931 
L 262.24308 47.083416 
L 263.459787 47.460388 
L 264.676494 47.944847 
L 265.8932 48.536792 
L 267.109907 49.236225 
L 268.326614 50.043144 
L 269.543321 50.95755 
L 270.760027 51.979443 
L 271.976734 53.108823 
L 273.193441 54.34569 
L 274.410148 55.690043 
L 275.626854 57.141884 
L 276.843561 58.701211 
L 278.060268 60.368025 
L 279.276975 62.142326 
L 280.493681 64.024114 
L 281.710388 66.013389 
L 282.927095 68.110151 
L 284.143802 70.314399 
L 285.360508 72.626135 
L 286.577215 75.045357 
L 287.793922 77.572066 
L 289.010629 80.206262 
L 290.227335 82.947945 
L 291.444042 85.797115 
L 292.660749 88.753772 
L 293.877456 91.817915 
L 295.094162 94.989545 
L 296.310869 98.268663 
L 297.527576 101.655267 
L 298.744283 105.149358 
L 299.960989 108.750936 
L 301.177696 112.46 
L 302.394403 116.276552 
L 303.61111 120.20059 
L 304.827816 124.232116 
L 306.044523 128.371128 
L 307.26123 132.617627 
L 308.477937 136.971613 
" clip-path="url(#p45e2ec117b)" style="fill: none; stroke: #800080; stroke-width: 1.5; stroke-linecap: square"/>
   </g>
   <g id="LineCollection_1">
    <path d="M 67.57 46.597419 
L 258.584269 46.597419 
" clip-path="url(#p45e2ec117b)" style="fill: none; stroke-dasharray: 5.55,2.4; stroke-dashoffset: 0; stroke: #000000; stroke-width: 1.5"/>
    <path d="M 67.57 136.971613 
L 308.477937 136.971613 
" clip-path="url(#p45e2ec117b)" style="fill: none; stroke-dasharray: 5.55,2.4; stroke-dashoffset: 0; stroke: #000000; stroke-width: 1.5"/>
   </g>
   <g id="line2d_8">
    <defs>
     <path id="m3a7256b890" d="M 3 0 
L -3 -3 
L -3 3 
z
" style="stroke: #000000; stroke-linejoin: miter"/>
    </defs>
    <g>
     <use xlink:href="#m3a7256b890" x="447" y="317.72" style="stroke: #000000; stroke-linejoin: miter"/>
    </g>
   </g>
   <g id="line2d_9">
    <defs>
     <path id="m6f63c9ba50" d="M 0 -3 
L -3 3 
L 3 3 
z
" style="stroke: #000000; stroke-linejoin: miter"/>
    </defs>
    <g>
     <use xlink:href="#m6f63c9ba50" x="67.57" y="37.56" style="stroke: #000000; stroke-linejoin: miter"/>
    </g>
   </g>
   <g id="patch_4">
    <path d="M 67.57 317.72 
L 67.57 37.56 
" style="fill: none; stroke: #000000; stroke-width: 0.8; stroke-linejoin: miter; stroke-linecap: square"/>
   </g>
   <g id="patch_5">
    <path d="M 447 317.72 
L 447 37.56 
" style="fill: none"/>
   </g>
   <g id="patch_6">
    <path d="M 67.57 317.72 
L 447 317.72 
" style="fill: none; stroke: #000000; stroke-width: 0.8; stroke-linejoin: miter; stroke-linecap: square"/>
   </g>
   <g id="patch_7">
    <path d="M 67.57 37.56 
L 447 37.56 
" style="fill: none"/>
   </g>
   <g id="legend_1">
    <g id="patch_8">
     <path d="M 367.179688 89.594375 
L 440 89.594375 
Q 442 89.594375 442 87.594375 
L 442 44.56 
Q 442 42.56 440 42.56 
L 367.179688 42.56 
Q 365.179688 42.56 365.179688 44.56 
L 365.179688 87.594375 
Q 365.179688 89.594375 367.179688 89.594375 
z
" style="fill: #ffffff; opacity: 0.8; stroke: #cccccc; stroke-linejoin: miter"/>
    </g>
    <g id="line2d_10">
     <path d="M 369.179688 50.658438 
L 379.179688 50.658438 
L 389.179688 50.658438 
" style="fill: none; stroke: #0000ff; stroke-width: 1.5; stroke-linecap: square"/>
    </g>
    <g id="text_5">
     <!-- start -->
     <g transform="translate(397.179688 54.158438) scale(0.1 -0.1)">
      <use xlink:href="#DejaVuSans-73"/>
      <use xlink:href="#DejaVuSans-74" x="52.099609"/>
      <use xlink:href="#DejaVuSans-61" x="91.308594"/>
      <use xlink:href="#DejaVuSans-72" x="152.587891"/>
      <use xlink:href="#DejaVuSans-74" x="193.701172"/>
     </g>
    </g>
    <g id="line2d_11">
     <path d="M 369.179688 65.336563 
L 379.179688 65.336563 
L 389.179688 65.336563 
" style="fill: none; stroke: #ff0000; stroke-width: 1.5; stroke-linecap: square"/>
    </g>
    <g id="text_6">
     <!-- reaction -->
     <g transform="translate(397.179688 68.836563) scale(0.1 -0.1)">
      <use xlink:href="#DejaVuSans-72"/>
      <use xlink:href="#DejaVuSans-65" x="38.863281"/>
      <use xlink:href="#DejaVuSans-61" x="100.386719"/>
      <use xlink:href="#DejaVuSans-63" x="161.666016"/>
      <use xlink:href="#DejaVuSans-74" x="216.646484"/>
      <use xlink:href="#DejaVuSans-69" x="255.855469"/>
      <use xlink:href="#DejaVuSans-6f" x="283.638672"/>
      <use xlink:href="#DejaVuSans-6e" x="344.820312"/>
     </g>
    </g>
    <g id="line2d_12">
     <path d="M 369.179688 80.014688 
L 379.179688 80.014688 
L 389.179688 80.014688 
" style="fill: none; stroke: #800080; stroke-width: 1.5; stroke-linecap: square"/>
    </g>
    <g id="text_7">
     <!-- end -->
     <g transform="translate(397.179688 83.514688) scale(0.1 -0.1)">
      <use xlink:href="#DejaVuSans-65"/>
      <use xlink:href="#DejaVuSans-6e" x="61.523438"/>
      <use xlink:href="#DejaVuSans-64" x="124.902344"/>
     </g>
    </g>
   </g>
  </g>
  <g id="text_8">
   <!-- low to high -->
   <g transform="translate(197.236875 16.030125) scale(0.12 -0.12)">
    <defs>
     <path id="DejaVuSans-6c" d="M 603 4863 
L 1178 4863 
L 1178 0 
L 603 0 
L 603 4863 
z
" transform="scale(0.015625)"/>
     <path id="DejaVuSans-77" d="M 269 3500 
L 844 3500 
L 1563 769 
L 2278 3500 
L 2956 3500 
L 3675 769 
L 4391 3500 
L 4966 3500 
L 4050 0 
L 3372 0 
L 2619 2869 
L 1863 0 
L 1184 0 
L 269 3500 
z
" transform="scale(0.015625)"/>
     <path id="DejaVuSans-20" transform="scale(0.015625)"/>
     <path id="DejaVuSans-68" d="M 3513 2113 
L 3513 0 
L 2938 0 
L 2938 2094 
Q 2938 2591 2744 2837 
Q 2550 3084 2163 3084 
Q 1697 3084 1428 2787 
Q 1159 2491 1159 1978 
L 1159 0 
L 581 0 
L 581 4863 
L 1159 4863 
L 1159 2956 
Q 1366 3272 1645 3428 
Q 1925 3584 2291 3584 
Q 2894 3584 3203 3211 
Q 3513 2838 3513 2113 
z
" transform="scale(0.015625)"/>
     <path id="DejaVuSans-67" d="M 2906 1791 
Q 2906 2416 2648 2759 
Q 2391 3103 1925 3103 
Q 1463 3103 1205 2759 
Q 947 2416 947 1791 
Q 947 1169 1205 825 
Q 1463 481 1925 481 
Q 2391 481 2648 825 
Q 2906 1169 2906 1791 
z
M 3481 434 
Q 3481 -459 3084 -895 
Q 2688 -1331 1869 -1331 
Q 1566 -1331 1297 -1286 
Q 1028 -1241 775 -1147 
L 775 -588 
Q 1028 -725 1275 -790 
Q 1522 -856 1778 -856 
Q 2344 -856 2625 -561 
Q 2906 -266 2906 331 
L 2906 616 
Q 2728 306 2450 153 
Q 2172 0 1784 0 
Q 1141 0 747 490 
Q 353 981 353 1791 
Q 353 2603 747 3093 
Q 1141 3584 1784 3584 
Q 2172 3584 2450 3431 
Q 2728 3278 2906 2969 
L 2906 3500 
L 3481 3500 
L 3481 434 
z
" transform="scale(0.015625)"/>
    </defs>
    <use xlink:href="#DejaVuSans-6c"/>
    <use xlink:href="#DejaVuSans-6f" x="27.783203"/>
    <use xlink:href="#DejaVuSans-77" x="88.964844"/>
    <use xlink:href="#DejaVuSans-20" x="170.751953"/>
    <use xlink:href="#DejaVuSans-74" x="202.539062"/>
    <use xlink:href="#DejaVuSans-6f" x="241.748047"/>
    <use xlink:href="#DejaVuSans-20" x="302.929688"/>
    <use xlink:href="#DejaVuSans-68" x="334.716797"/>
    <use xlink:href="#DejaVuSans-69" x="398.095703"/>
    <use xlink:href="#DejaVuSans-67" x="425.878906"/>
    <use xlink:href="#DejaVuSans-68" x="489.355469"/>
   </g>
  </g>
 </g>
 <defs>
  <clipPath id="p45e2ec117b">
   <rect x="67.57" y="37.56" width="379.43" height="280.16"/>
  </clipPath>
 </defs>
</svg>
