<?xml version="1.0" encoding="utf-8" standalone="no"?>
<!DOCTYPE svg PUBLIC "-//W3C//DTD SVG 1.1//EN"
  "http://www.w3.org/Graphics/SVG/1.1/DTD/svg11.dtd">
<svg xmlns:xlink="http://www.w3.org/1999/xlink" width="460.8pt" height="345.6pt" viewBox="0 0 460.8 345.6" xmlns="http://www.w3.org/2000/svg" version="1.1">
 <metadata>
  <rdf:RDF xmlns:dc="http://purl.org/dc/elements/1.1/" xmlns:cc="http://creativecommons.org/ns#" xmlns:rdf="http://www.w3.org/1999/02/22-rdf-syntax-ns#">
   <cc:Work>
    <dc:type rdf:resource="http://purl.org/dc/dcmitype/StillImage"/>
    <dc:date>2022-10-24T21:31:50.843468</dc:date>
    <dc:format>image/svg+xml</dc:format>
    <dc:creator>
     <cc:Agent>
      <dc:title>Matplotlib v3.6.1, https://matplotlib.org/</dc:title>
     </cc:Agent>
    </dc:creator>
   </cc:Work>
  </rdf:RDF>
 </metadata>
 <defs>
  <style type="text/css">*{stroke-linejoin: round; stroke-linecap: butt}</style>
 </defs>
 <g id="figure_1">
  <g id="patch_1">
   <path d="M 0 345.6 
L 460.8 345.6 
L 460.8 0 
L 0 0 
z
" style="fill: #ffffff"/>
  </g>
  <g id="axes_1">
   <g id="patch_2">
    <path d="M 24.1 160.472 
L 222 160.472 
L 222 50.64 
L 24.1 50.64 
z
" style="fill: #ffffff"/>
   </g>
   <g id="matplotlib.axis_1">
    <g id="xtick_1">
     <g id="line2d_1">
      <defs>
       <path id="m5835932f82" d="M 0 0 
L 0 3.5 
" style="stroke: #000000; stroke-width: 0.8"/>
      </defs>
      <g>
       <use xlink:href="#m5835932f82" x="24.1" y="160.472" style="stroke: #000000; stroke-width: 0.8"/>
      </g>
     </g>
     <g id="text_1">
      <!-- 0 -->
      <g transform="translate(20.91875 175.070437) scale(0.1 -0.1)">
       <defs>
        <path id="DejaVuSans-30" d="M 2034 4250 
Q 1547 4250 1301 3770 
Q 1056 3291 1056 2328 
Q 1056 1369 1301 889 
Q 1547 409 2034 409 
Q 2525 409 2770 889 
Q 3016 1369 3016 2328 
Q 3016 3291 2770 3770 
Q 2525 4250 2034 4250 
z
M 2034 4750 
Q 2819 4750 3233 4129 
Q 3647 3509 3647 2328 
Q 3647 1150 3233 529 
Q 2819 -91 2034 -91 
Q 1250 -91 836 529 
Q 422 1150 422 2328 
Q 422 3509 836 4129 
Q 1250 4750 2034 4750 
z
" transform="scale(0.015625)"/>
       </defs>
       <use xlink:href="#DejaVuSans-30"/>
      </g>
     </g>
    </g>
    <g id="xtick_2">
     <g id="line2d_2">
      <g>
       <use xlink:href="#m5835932f82" x="86.925397" y="160.472" style="stroke: #000000; stroke-width: 0.8"/>
      </g>
     </g>
     <g id="text_2">
      <!-- $t_{1}$ -->
      <g transform="translate(82.575397 175.070437) scale(0.1 -0.1)">
       <defs>
        <path id="DejaVuSans-Oblique-74" d="M 2706 3500 
L 2619 3053 
L 1472 3053 
L 1100 1153 
Q 1081 1047 1072 975 
Q 1063 903 1063 863 
Q 1063 663 1183 572 
Q 1303 481 1569 481 
L 2150 481 
L 2053 0 
L 1503 0 
Q 991 0 739 200 
Q 488 400 488 806 
Q 488 878 497 964 
Q 506 1050 525 1153 
L 897 3053 
L 409 3053 
L 500 3500 
L 978 3500 
L 1172 4494 
L 1747 4494 
L 1556 3500 
L 2706 3500 
z
" transform="scale(0.015625)"/>
        <path id="DejaVuSans-31" d="M 794 531 
L 1825 531 
L 1825 4091 
L 703 3866 
L 703 4441 
L 1819 4666 
L 2450 4666 
L 2450 531 
L 3481 531 
L 3481 0 
L 794 0 
L 794 531 
z
" transform="scale(0.015625)"/>
       </defs>
       <use xlink:href="#DejaVuSans-Oblique-74" transform="translate(0 0.78125)"/>
       <use xlink:href="#DejaVuSans-31" transform="translate(39.208984 -15.625) scale(0.7)"/>
      </g>
     </g>
    </g>
    <g id="xtick_3">
     <g id="line2d_3">
      <g>
       <use xlink:href="#m5835932f82" x="181.163492" y="160.472" style="stroke: #000000; stroke-width: 0.8"/>
      </g>
     </g>
     <g id="text_3">
      <!-- $t_{2}$ -->
      <g transform="translate(176.813492 175.070437) scale(0.1 -0.1)">
       <defs>
        <path id="DejaVuSans-32" d="M 1228 531 
L 3431 531 
L 3431 0 
L 469 0 
L 469 531 
Q 828 903 1448 1529 
Q 2069 2156 2228 2338 
Q 2531 2678 2651 2914 
Q 2772 3150 2772 3378 
Q 2772 3750 2511 3984 
Q 2250 4219 1831 4219 
Q 1534 4219 1204 4116 
Q 875 4013 500 3803 
L 500 4441 
Q 881 4594 1212 4672 
Q 1544 4750 1819 4750 
Q 2544 4750 2975 4387 
Q 3406 4025 3406 3419 
Q 3406 3131 3298 2873 
Q 3191 2616 2906 2266 
Q 2828 2175 2409 1742 
Q 1991 1309 1228 531 
z
" transform="scale(0.015625)"/>
       </defs>
       <use xlink:href="#DejaVuSans-Oblique-74" transform="translate(0 0.78125)"/>
       <use xlink:href="#DejaVuSans-32" transform="translate(39.208984 -15.625) scale(0.7)"/>
      </g>
     </g>
    </g>
   </g>
   <g id="matplotlib.axis_2">
    <g id="ytick_1">
     <g id="line2d_4">
      <defs>
       <path id="m269be47ad0" d="M 0 0 
L -3.5 0 
" style="stroke: #000000; stroke-width: 0.8"/>
      </defs>
      <g>
       <use xlink:href="#m269be47ad0" x="24.1" y="160.472" style="stroke: #000000; stroke-width: 0.8"/>
      </g>
     </g>
     <g id="text_4">
      <!-- 0 -->
      <g transform="translate(10.7375 164.271219) scale(0.1 -0.1)">
       <use xlink:href="#DejaVuSans-30"/>
      </g>
     </g>
    </g>
   </g>
   <g id="line2d_5">
    <path d="M 24.1 98.941468 
L 28.565068 103.15911 
L 32.967248 107.013088 
L 37.30654 110.516348 
L 41.520055 113.63717 
L 45.670682 116.440814 
L 49.75842 118.939487 
L 53.846159 121.177674 
L 57.871009 123.126919 
L 61.832971 124.799062 
L 65.732045 126.205755 
L 69.631118 127.37545 
L 73.467304 128.294986 
L 77.303489 128.985107 
L 81.076786 129.440112 
L 84.850083 129.673163 
L 86.925397 129.706734 
L 86.925397 129.706734 
" clip-path="url(#pceaa025360)" style="fill: none; stroke: #ff0000; stroke-width: 1.5; stroke-linecap: square"/>
   </g>
   <g id="line2d_6">
    <path d="M 24.1 160.472 
L 28.565068 156.254358 
L 32.967248 152.40038 
L 37.30654 148.89712 
L 41.520055 145.776298 
L 45.670682 142.972654 
L 49.75842 140.473981 
L 53.846159 138.235794 
L 57.871009 136.286548 
L 61.832971 134.614405 
L 65.732045 133.207713 
L 69.631118 132.038017 
L 73.467304 131.118482 
L 77.303489 130.428361 
L 81.076786 129.973356 
L 84.850083 129.740304 
L 86.925397 129.706734 
L 86.925397 129.706734 
" clip-path="url(#pceaa025360)" style="fill: none; stroke: #0000ff; stroke-width: 1.5; stroke-linecap: square"/>
   </g>
   <g id="line2d_7">
    <path d="M 86.925397 129.706734 
L 118.338095 129.706734 
L 118.338095 129.706734 
" clip-path="url(#pceaa025360)" style="fill: none; stroke: #800080; stroke-width: 1.5; stroke-linecap: square"/>
   </g>
   <g id="line2d_8">
    <path d="M 86.925397 160.472 
L 86.925397 50.64 
" clip-path="url(#pceaa025360)" style="fill: none; stroke-dasharray: 1.5,1.5; stroke-dashoffset: 0; stroke: #000000; stroke-width: 1.5"/>
   </g>
   <g id="line2d_9">
    <path d="M 118.338095 55.870095 
L 122.803163 60.087738 
L 127.205343 63.941715 
L 131.544635 67.444976 
L 135.75815 70.565797 
L 139.908777 73.369441 
L 143.996516 75.868115 
L 148.084254 78.106301 
L 152.109104 80.055547 
L 156.071066 81.72769 
L 159.97014 83.134382 
L 163.869214 84.304078 
L 167.705399 85.223613 
L 171.541584 85.913735 
L 175.314882 86.36874 
L 179.088179 86.601791 
L 181.163492 86.635361 
L 181.163492 86.635361 
" clip-path="url(#pceaa025360)" style="fill: none; stroke: #ff0000; stroke-width: 1.5; stroke-linecap: square"/>
   </g>
   <g id="line2d_10">
    <path d="M 118.338095 117.400627 
L 122.803163 113.182985 
L 127.205343 109.329007 
L 131.544635 105.825747 
L 135.75815 102.704925 
L 139.908777 99.901281 
L 143.996516 97.402608 
L 148.084254 95.164422 
L 152.109104 93.215176 
L 156.071066 91.543033 
L 159.97014 90.13634 
L 163.869214 88.966645 
L 167.705399 88.04711 
L 171.541584 87.356988 
L 175.314882 86.901983 
L 179.088179 86.668932 
L 181.163492 86.635361 
L 181.163492 86.635361 
" clip-path="url(#pceaa025360)" style="fill: none; stroke: #0000ff; stroke-width: 1.5; stroke-linecap: square"/>
   </g>
   <g id="line2d_11">
    <path d="M 181.163492 86.635361 
L 212.57619 86.635361 
L 212.57619 86.635361 
" clip-path="url(#pceaa025360)" style="fill: none; stroke: #800080; stroke-width: 1.5; stroke-linecap: square"/>
   </g>
   <g id="line2d_12">
    <path d="M 181.163492 160.472 
L 181.163492 50.64 
" clip-path="url(#pceaa025360)" style="fill: none; stroke-dasharray: 1.5,1.5; stroke-dashoffset: 0; stroke: #000000; stroke-width: 1.5"/>
   </g>
   <g id="line2d_13">
    <defs>
     <path id="m8932497b0d" d="M 3 0 
L -3 -3 
L -3 3 
z
" style="stroke: #000000; stroke-linejoin: miter"/>
    </defs>
    <g>
     <use xlink:href="#m8932497b0d" x="222" y="160.472" style="stroke: #000000; stroke-linejoin: miter"/>
    </g>
   </g>
   <g id="line2d_14">
    <defs>
     <path id="m7e58add8ec" d="M 0 -3 
L -3 3 
L 3 3 
z
" style="stroke: #000000; stroke-linejoin: miter"/>
    </defs>
    <g>
     <use xlink:href="#m7e58add8ec" x="24.1" y="50.64" style="stroke: #000000; stroke-linejoin: miter"/>
    </g>
   </g>
   <g id="patch_3">
    <path d="M 24.1 160.472 
L 24.1 50.64 
" style="fill: none; stroke: #000000; stroke-width: 0.8; stroke-linejoin: miter; stroke-linecap: square"/>
   </g>
   <g id="patch_4">
    <path d="M 222 160.472 
L 222 50.64 
" style="fill: none"/>
   </g>
   <g id="patch_5">
    <path d="M 24.1 160.472 
L 222 160.472 
" style="fill: none; stroke: #000000; stroke-width: 0.8; stroke-linejoin: miter; stroke-linecap: square"/>
   </g>
   <g id="patch_6">
    <path d="M 24.1 50.64 
L 222 50.64 
" style="fill: none"/>
   </g>
   <g id="text_5">
    <!-- higher temp, endothermic -->
    <g transform="translate(44.399375 44.64) scale(0.12 -0.12)">
     <defs>
      <path id="DejaVuSans-68" d="M 3513 2113 
L 3513 0 
L 2938 0 
L 2938 2094 
Q 2938 2591 2744 2837 
Q 2550 3084 2163 3084 
Q 1697 3084 1428 2787 
Q 1159 2491 1159 1978 
L 1159 0 
L 581 0 
L 581 4863 
L 1159 4863 
L 1159 2956 
Q 1366 3272 1645 3428 
Q 1925 3584 2291 3584 
Q 2894 3584 3203 3211 
Q 3513 2838 3513 2113 
z
" transform="scale(0.015625)"/>
      <path id="DejaVuSans-69" d="M 603 3500 
L 1178 3500 
L 1178 0 
L 603 0 
L 603 3500 
z
M 603 4863 
L 1178 4863 
L 1178 4134 
L 603 4134 
L 603 4863 
z
" transform="scale(0.015625)"/>
      <path id="DejaVuSans-67" d="M 2906 1791 
Q 2906 2416 2648 2759 
Q 2391 3103 1925 3103 
Q 1463 3103 1205 2759 
Q 947 2416 947 1791 
Q 947 1169 1205 825 
Q 1463 481 1925 481 
Q 2391 481 2648 825 
Q 2906 1169 2906 1791 
z
M 3481 434 
Q 3481 -459 3084 -895 
Q 2688 -1331 1869 -1331 
Q 1566 -1331 1297 -1286 
Q 1028 -1241 775 -1147 
L 775 -588 
Q 1028 -725 1275 -790 
Q 1522 -856 1778 -856 
Q 2344 -856 2625 -561 
Q 2906 -266 2906 331 
L 2906 616 
Q 2728 306 2450 153 
Q 2172 0 1784 0 
Q 1141 0 747 490 
Q 353 981 353 1791 
Q 353 2603 747 3093 
Q 1141 3584 1784 3584 
Q 2172 3584 2450 3431 
Q 2728 3278 2906 2969 
L 2906 3500 
L 3481 3500 
L 3481 434 
z
" transform="scale(0.015625)"/>
      <path id="DejaVuSans-65" d="M 3597 1894 
L 3597 1613 
L 953 1613 
Q 991 1019 1311 708 
Q 1631 397 2203 397 
Q 2534 397 2845 478 
Q 3156 559 3463 722 
L 3463 178 
Q 3153 47 2828 -22 
Q 2503 -91 2169 -91 
Q 1331 -91 842 396 
Q 353 884 353 1716 
Q 353 2575 817 3079 
Q 1281 3584 2069 3584 
Q 2775 3584 3186 3129 
Q 3597 2675 3597 1894 
z
M 3022 2063 
Q 3016 2534 2758 2815 
Q 2500 3097 2075 3097 
Q 1594 3097 1305 2825 
Q 1016 2553 972 2059 
L 3022 2063 
z
" transform="scale(0.015625)"/>
      <path id="DejaVuSans-72" d="M 2631 2963 
Q 2534 3019 2420 3045 
Q 2306 3072 2169 3072 
Q 1681 3072 1420 2755 
Q 1159 2438 1159 1844 
L 1159 0 
L 581 0 
L 581 3500 
L 1159 3500 
L 1159 2956 
Q 1341 3275 1631 3429 
Q 1922 3584 2338 3584 
Q 2397 3584 2469 3576 
Q 2541 3569 2628 3553 
L 2631 2963 
z
" transform="scale(0.015625)"/>
      <path id="DejaVuSans-20" transform="scale(0.015625)"/>
      <path id="DejaVuSans-74" d="M 1172 4494 
L 1172 3500 
L 2356 3500 
L 2356 3053 
L 1172 3053 
L 1172 1153 
Q 1172 725 1289 603 
Q 1406 481 1766 481 
L 2356 481 
L 2356 0 
L 1766 0 
Q 1100 0 847 248 
Q 594 497 594 1153 
L 594 3053 
L 172 3053 
L 172 3500 
L 594 3500 
L 594 4494 
L 1172 4494 
z
" transform="scale(0.015625)"/>
      <path id="DejaVuSans-6d" d="M 3328 2828 
Q 3544 3216 3844 3400 
Q 4144 3584 4550 3584 
Q 5097 3584 5394 3201 
Q 5691 2819 5691 2113 
L 5691 0 
L 5113 0 
L 5113 2094 
Q 5113 2597 4934 2840 
Q 4756 3084 4391 3084 
Q 3944 3084 3684 2787 
Q 3425 2491 3425 1978 
L 3425 0 
L 2847 0 
L 2847 2094 
Q 2847 2600 2669 2842 
Q 2491 3084 2119 3084 
Q 1678 3084 1418 2786 
Q 1159 2488 1159 1978 
L 1159 0 
L 581 0 
L 581 3500 
L 1159 3500 
L 1159 2956 
Q 1356 3278 1631 3431 
Q 1906 3584 2284 3584 
Q 2666 3584 2933 3390 
Q 3200 3197 3328 2828 
z
" transform="scale(0.015625)"/>
      <path id="DejaVuSans-70" d="M 1159 525 
L 1159 -1331 
L 581 -1331 
L 581 3500 
L 1159 3500 
L 1159 2969 
Q 1341 3281 1617 3432 
Q 1894 3584 2278 3584 
Q 2916 3584 3314 3078 
Q 3713 2572 3713 1747 
Q 3713 922 3314 415 
Q 2916 -91 2278 -91 
Q 1894 -91 1617 61 
Q 1341 213 1159 525 
z
M 3116 1747 
Q 3116 2381 2855 2742 
Q 2594 3103 2138 3103 
Q 1681 3103 1420 2742 
Q 1159 2381 1159 1747 
Q 1159 1113 1420 752 
Q 1681 391 2138 391 
Q 2594 391 2855 752 
Q 3116 1113 3116 1747 
z
" transform="scale(0.015625)"/>
      <path id="DejaVuSans-2c" d="M 750 794 
L 1409 794 
L 1409 256 
L 897 -744 
L 494 -744 
L 750 256 
L 750 794 
z
" transform="scale(0.015625)"/>
      <path id="DejaVuSans-6e" d="M 3513 2113 
L 3513 0 
L 2938 0 
L 2938 2094 
Q 2938 2591 2744 2837 
Q 2550 3084 2163 3084 
Q 1697 3084 1428 2787 
Q 1159 2491 1159 1978 
L 1159 0 
L 581 0 
L 581 3500 
L 1159 3500 
L 1159 2956 
Q 1366 3272 1645 3428 
Q 1925 3584 2291 3584 
Q 2894 3584 3203 3211 
Q 3513 2838 3513 2113 
z
" transform="scale(0.015625)"/>
      <path id="DejaVuSans-64" d="M 2906 2969 
L 2906 4863 
L 3481 4863 
L 3481 0 
L 2906 0 
L 2906 525 
Q 2725 213 2448 61 
Q 2172 -91 1784 -91 
Q 1150 -91 751 415 
Q 353 922 353 1747 
Q 353 2572 751 3078 
Q 1150 3584 1784 3584 
Q 2172 3584 2448 3432 
Q 2725 3281 2906 2969 
z
M 947 1747 
Q 947 1113 1208 752 
Q 1469 391 1925 391 
Q 2381 391 2643 752 
Q 2906 1113 2906 1747 
Q 2906 2381 2643 2742 
Q 2381 3103 1925 3103 
Q 1469 3103 1208 2742 
Q 947 2381 947 1747 
z
" transform="scale(0.015625)"/>
      <path id="DejaVuSans-6f" d="M 1959 3097 
Q 1497 3097 1228 2736 
Q 959 2375 959 1747 
Q 959 1119 1226 758 
Q 1494 397 1959 397 
Q 2419 397 2687 759 
Q 2956 1122 2956 1747 
Q 2956 2369 2687 2733 
Q 2419 3097 1959 3097 
z
M 1959 3584 
Q 2709 3584 3137 3096 
Q 3566 2609 3566 1747 
Q 3566 888 3137 398 
Q 2709 -91 1959 -91 
Q 1206 -91 779 398 
Q 353 888 353 1747 
Q 353 2609 779 3096 
Q 1206 3584 1959 3584 
z
" transform="scale(0.015625)"/>
      <path id="DejaVuSans-63" d="M 3122 3366 
L 3122 2828 
Q 2878 2963 2633 3030 
Q 2388 3097 2138 3097 
Q 1578 3097 1268 2742 
Q 959 2388 959 1747 
Q 959 1106 1268 751 
Q 1578 397 2138 397 
Q 2388 397 2633 464 
Q 2878 531 3122 666 
L 3122 134 
Q 2881 22 2623 -34 
Q 2366 -91 2075 -91 
Q 1284 -91 818 406 
Q 353 903 353 1747 
Q 353 2603 823 3093 
Q 1294 3584 2113 3584 
Q 2378 3584 2631 3529 
Q 2884 3475 3122 3366 
z
" transform="scale(0.015625)"/>
     </defs>
     <use xlink:href="#DejaVuSans-68"/>
     <use xlink:href="#DejaVuSans-69" x="63.378906"/>
     <use xlink:href="#DejaVuSans-67" x="91.162109"/>
     <use xlink:href="#DejaVuSans-68" x="154.638672"/>
     <use xlink:href="#DejaVuSans-65" x="218.017578"/>
     <use xlink:href="#DejaVuSans-72" x="279.541016"/>
     <use xlink:href="#DejaVuSans-20" x="320.654297"/>
     <use xlink:href="#DejaVuSans-74" x="352.441406"/>
     <use xlink:href="#DejaVuSans-65" x="391.650391"/>
     <use xlink:href="#DejaVuSans-6d" x="453.173828"/>
     <use xlink:href="#DejaVuSans-70" x="550.585938"/>
     <use xlink:href="#DejaVuSans-2c" x="614.0625"/>
     <use xlink:href="#DejaVuSans-20" x="645.849609"/>
     <use xlink:href="#DejaVuSans-65" x="677.636719"/>
     <use xlink:href="#DejaVuSans-6e" x="739.160156"/>
     <use xlink:href="#DejaVuSans-64" x="802.539062"/>
     <use xlink:href="#DejaVuSans-6f" x="866.015625"/>
     <use xlink:href="#DejaVuSans-74" x="927.197266"/>
     <use xlink:href="#DejaVuSans-68" x="966.40625"/>
     <use xlink:href="#DejaVuSans-65" x="1029.785156"/>
     <use xlink:href="#DejaVuSans-72" x="1091.308594"/>
     <use xlink:href="#DejaVuSans-6d" x="1130.671875"/>
     <use xlink:href="#DejaVuSans-69" x="1228.083984"/>
     <use xlink:href="#DejaVuSans-63" x="1255.867188"/>
    </g>
   </g>
   <g id="legend_1">
    <g id="patch_7">
     <path d="M 142.8 102.674375 
L 215 102.674375 
Q 217 102.674375 217 100.674375 
L 217 57.64 
Q 217 55.64 215 55.64 
L 142.8 55.64 
Q 140.8 55.64 140.8 57.64 
L 140.8 100.674375 
Q 140.8 102.674375 142.8 102.674375 
z
" style="fill: #ffffff; opacity: 0.8; stroke: #cccccc; stroke-linejoin: miter"/>
    </g>
    <g id="line2d_15">
     <path d="M 144.8 63.738438 
L 154.8 63.738438 
L 164.8 63.738438 
" style="fill: none; stroke: #ff0000; stroke-width: 1.5; stroke-linecap: square"/>
    </g>
    <g id="text_6">
     <!-- $v_{forward}$ -->
     <g transform="translate(172.8 67.238438) scale(0.1 -0.1)">
      <defs>
       <path id="DejaVuSans-Oblique-76" d="M 459 3500 
L 1069 3500 
L 1581 525 
L 3256 3500 
L 3866 3500 
L 1875 0 
L 1100 0 
L 459 3500 
z
" transform="scale(0.015625)"/>
       <path id="DejaVuSans-Oblique-66" d="M 3059 4863 
L 2969 4384 
L 2419 4384 
Q 2106 4384 1964 4261 
Q 1822 4138 1753 3809 
L 1691 3500 
L 2638 3500 
L 2553 3053 
L 1606 3053 
L 1013 0 
L 434 0 
L 1031 3053 
L 481 3053 
L 563 3500 
L 1113 3500 
L 1159 3744 
Q 1278 4363 1576 4613 
Q 1875 4863 2516 4863 
L 3059 4863 
z
" transform="scale(0.015625)"/>
       <path id="DejaVuSans-Oblique-6f" d="M 1625 -91 
Q 1009 -91 651 289 
Q 294 669 294 1325 
Q 294 1706 417 2101 
Q 541 2497 738 2766 
Q 1047 3184 1428 3384 
Q 1809 3584 2291 3584 
Q 2888 3584 3255 3212 
Q 3622 2841 3622 2241 
Q 3622 1825 3500 1412 
Q 3378 1000 3181 728 
Q 2875 309 2494 109 
Q 2113 -91 1625 -91 
z
M 891 1344 
Q 891 869 1089 633 
Q 1288 397 1691 397 
Q 2269 397 2648 901 
Q 3028 1406 3028 2181 
Q 3028 2634 2825 2865 
Q 2622 3097 2228 3097 
Q 1903 3097 1650 2945 
Q 1397 2794 1197 2484 
Q 1050 2253 970 1956 
Q 891 1659 891 1344 
z
" transform="scale(0.015625)"/>
       <path id="DejaVuSans-Oblique-72" d="M 2853 2969 
Q 2766 3016 2653 3041 
Q 2541 3066 2413 3066 
Q 1953 3066 1609 2717 
Q 1266 2369 1153 1784 
L 800 0 
L 225 0 
L 909 3500 
L 1484 3500 
L 1375 2956 
Q 1603 3259 1920 3421 
Q 2238 3584 2597 3584 
Q 2691 3584 2781 3573 
Q 2872 3563 2963 3538 
L 2853 2969 
z
" transform="scale(0.015625)"/>
       <path id="DejaVuSans-Oblique-77" d="M 544 3500 
L 1113 3500 
L 1259 684 
L 2566 3500 
L 3231 3500 
L 3425 684 
L 4666 3500 
L 5241 3500 
L 3641 0 
L 2969 0 
L 2797 2900 
L 1459 0 
L 781 0 
L 544 3500 
z
" transform="scale(0.015625)"/>
       <path id="DejaVuSans-Oblique-61" d="M 3438 1997 
L 3047 0 
L 2472 0 
L 2578 531 
Q 2325 219 2001 64 
Q 1678 -91 1281 -91 
Q 834 -91 548 182 
Q 263 456 263 884 
Q 263 1497 752 1853 
Q 1241 2209 2100 2209 
L 2900 2209 
L 2931 2363 
Q 2938 2388 2941 2417 
Q 2944 2447 2944 2509 
Q 2944 2788 2717 2942 
Q 2491 3097 2081 3097 
Q 1800 3097 1504 3025 
Q 1209 2953 897 2809 
L 997 3341 
Q 1322 3463 1633 3523 
Q 1944 3584 2234 3584 
Q 2853 3584 3176 3315 
Q 3500 3047 3500 2534 
Q 3500 2431 3484 2292 
Q 3469 2153 3438 1997 
z
M 2816 1759 
L 2241 1759 
Q 1534 1759 1195 1570 
Q 856 1381 856 984 
Q 856 709 1029 553 
Q 1203 397 1509 397 
Q 1978 397 2328 733 
Q 2678 1069 2791 1631 
L 2816 1759 
z
" transform="scale(0.015625)"/>
       <path id="DejaVuSans-Oblique-64" d="M 2675 525 
Q 2444 222 2128 65 
Q 1813 -91 1428 -91 
Q 903 -91 598 267 
Q 294 625 294 1247 
Q 294 1766 478 2236 
Q 663 2706 1013 3078 
Q 1244 3325 1534 3454 
Q 1825 3584 2144 3584 
Q 2481 3584 2739 3421 
Q 2997 3259 3138 2956 
L 3513 4863 
L 4091 4863 
L 3144 0 
L 2566 0 
L 2675 525 
z
M 891 1350 
Q 891 897 1095 644 
Q 1300 391 1663 391 
Q 1931 391 2161 520 
Q 2391 650 2566 903 
Q 2750 1166 2856 1509 
Q 2963 1853 2963 2188 
Q 2963 2622 2758 2865 
Q 2553 3109 2194 3109 
Q 1922 3109 1687 2981 
Q 1453 2853 1288 2613 
Q 1106 2353 998 2009 
Q 891 1666 891 1350 
z
" transform="scale(0.015625)"/>
      </defs>
      <use xlink:href="#DejaVuSans-Oblique-76" transform="translate(0 0.3125)"/>
      <use xlink:href="#DejaVuSans-Oblique-66" transform="translate(59.179688 -16.09375) scale(0.7)"/>
      <use xlink:href="#DejaVuSans-Oblique-6f" transform="translate(83.823242 -16.09375) scale(0.7)"/>
      <use xlink:href="#DejaVuSans-Oblique-72" transform="translate(126.650391 -16.09375) scale(0.7)"/>
      <use xlink:href="#DejaVuSans-Oblique-77" transform="translate(155.429688 -16.09375) scale(0.7)"/>
      <use xlink:href="#DejaVuSans-Oblique-61" transform="translate(212.680664 -16.09375) scale(0.7)"/>
      <use xlink:href="#DejaVuSans-Oblique-72" transform="translate(255.576172 -16.09375) scale(0.7)"/>
      <use xlink:href="#DejaVuSans-Oblique-64" transform="translate(284.355469 -16.09375) scale(0.7)"/>
     </g>
    </g>
    <g id="line2d_16">
     <path d="M 144.8 78.416563 
L 154.8 78.416563 
L 164.8 78.416563 
" style="fill: none; stroke: #0000ff; stroke-width: 1.5; stroke-linecap: square"/>
    </g>
    <g id="text_7">
     <!-- $v_{backward}$ -->
     <g transform="translate(172.8 81.916563) scale(0.1 -0.1)">
      <defs>
       <path id="DejaVuSans-Oblique-62" d="M 3169 2138 
Q 3169 2591 2961 2847 
Q 2753 3103 2388 3103 
Q 2122 3103 1889 2973 
Q 1656 2844 1484 2597 
Q 1303 2338 1198 1995 
Q 1094 1653 1094 1313 
Q 1094 881 1298 636 
Q 1503 391 1863 391 
Q 2134 391 2365 517 
Q 2597 644 2772 891 
Q 2950 1147 3059 1487 
Q 3169 1828 3169 2138 
z
M 1381 2969 
Q 1594 3256 1914 3420 
Q 2234 3584 2584 3584 
Q 3122 3584 3439 3221 
Q 3756 2859 3756 2241 
Q 3756 1734 3570 1259 
Q 3384 784 3041 416 
Q 2816 172 2522 40 
Q 2228 -91 1906 -91 
Q 1566 -91 1316 65 
Q 1066 222 909 531 
L 806 0 
L 231 0 
L 1178 4863 
L 1753 4863 
L 1381 2969 
z
" transform="scale(0.015625)"/>
       <path id="DejaVuSans-Oblique-63" d="M 3431 3366 
L 3316 2797 
Q 3109 2947 2876 3022 
Q 2644 3097 2394 3097 
Q 2119 3097 1870 3000 
Q 1622 2903 1453 2725 
Q 1184 2453 1037 2087 
Q 891 1722 891 1331 
Q 891 859 1127 628 
Q 1363 397 1844 397 
Q 2081 397 2348 469 
Q 2616 541 2906 684 
L 2797 116 
Q 2547 13 2283 -39 
Q 2019 -91 1741 -91 
Q 1044 -91 669 257 
Q 294 606 294 1253 
Q 294 1797 489 2255 
Q 684 2713 1069 3078 
Q 1331 3328 1684 3456 
Q 2038 3584 2456 3584 
Q 2700 3584 2940 3529 
Q 3181 3475 3431 3366 
z
" transform="scale(0.015625)"/>
       <path id="DejaVuSans-Oblique-6b" d="M 1172 4863 
L 1747 4863 
L 1197 2028 
L 3169 3500 
L 3916 3500 
L 1716 1825 
L 3322 0 
L 2625 0 
L 1131 1709 
L 800 0 
L 225 0 
L 1172 4863 
z
" transform="scale(0.015625)"/>
      </defs>
      <use xlink:href="#DejaVuSans-Oblique-76" transform="translate(0 0.3125)"/>
      <use xlink:href="#DejaVuSans-Oblique-62" transform="translate(59.179688 -16.09375) scale(0.7)"/>
      <use xlink:href="#DejaVuSans-Oblique-61" transform="translate(103.613281 -16.09375) scale(0.7)"/>
      <use xlink:href="#DejaVuSans-Oblique-63" transform="translate(146.508789 -16.09375) scale(0.7)"/>
      <use xlink:href="#DejaVuSans-Oblique-6b" transform="translate(184.995117 -16.09375) scale(0.7)"/>
      <use xlink:href="#DejaVuSans-Oblique-77" transform="translate(225.532227 -16.09375) scale(0.7)"/>
      <use xlink:href="#DejaVuSans-Oblique-61" transform="translate(282.783203 -16.09375) scale(0.7)"/>
      <use xlink:href="#DejaVuSans-Oblique-72" transform="translate(325.678711 -16.09375) scale(0.7)"/>
      <use xlink:href="#DejaVuSans-Oblique-64" transform="translate(354.458008 -16.09375) scale(0.7)"/>
     </g>
    </g>
    <g id="line2d_17">
     <path d="M 144.8 93.094688 
L 154.8 93.094688 
L 164.8 93.094688 
" style="fill: none; stroke: #800080; stroke-width: 1.5; stroke-linecap: square"/>
    </g>
    <g id="text_8">
     <!-- $v_{balance}$ -->
     <g transform="translate(172.8 96.594688) scale(0.1 -0.1)">
      <defs>
       <path id="DejaVuSans-Oblique-6c" d="M 1172 4863 
L 1747 4863 
L 800 0 
L 225 0 
L 1172 4863 
z
" transform="scale(0.015625)"/>
       <path id="DejaVuSans-Oblique-6e" d="M 3566 2113 
L 3156 0 
L 2578 0 
L 2988 2091 
Q 3016 2238 3031 2350 
Q 3047 2463 3047 2528 
Q 3047 2791 2881 2937 
Q 2716 3084 2419 3084 
Q 1956 3084 1622 2776 
Q 1288 2469 1184 1941 
L 800 0 
L 225 0 
L 903 3500 
L 1478 3500 
L 1363 2950 
Q 1603 3253 1940 3418 
Q 2278 3584 2650 3584 
Q 3113 3584 3367 3334 
Q 3622 3084 3622 2631 
Q 3622 2519 3608 2391 
Q 3594 2263 3566 2113 
z
" transform="scale(0.015625)"/>
       <path id="DejaVuSans-Oblique-65" d="M 3078 2063 
Q 3088 2113 3092 2166 
Q 3097 2219 3097 2272 
Q 3097 2653 2873 2875 
Q 2650 3097 2266 3097 
Q 1838 3097 1509 2826 
Q 1181 2556 1013 2059 
L 3078 2063 
z
M 3578 1613 
L 903 1613 
Q 884 1494 878 1425 
Q 872 1356 872 1306 
Q 872 872 1139 634 
Q 1406 397 1894 397 
Q 2269 397 2603 481 
Q 2938 566 3225 728 
L 3116 159 
Q 2806 34 2476 -28 
Q 2147 -91 1806 -91 
Q 1078 -91 686 257 
Q 294 606 294 1247 
Q 294 1794 489 2264 
Q 684 2734 1063 3103 
Q 1306 3334 1642 3459 
Q 1978 3584 2356 3584 
Q 2950 3584 3301 3228 
Q 3653 2872 3653 2272 
Q 3653 2128 3634 1964 
Q 3616 1800 3578 1613 
z
" transform="scale(0.015625)"/>
      </defs>
      <use xlink:href="#DejaVuSans-Oblique-76" transform="translate(0 0.3125)"/>
      <use xlink:href="#DejaVuSans-Oblique-62" transform="translate(59.179688 -16.09375) scale(0.7)"/>
      <use xlink:href="#DejaVuSans-Oblique-61" transform="translate(103.613281 -16.09375) scale(0.7)"/>
      <use xlink:href="#DejaVuSans-Oblique-6c" transform="translate(146.508789 -16.09375) scale(0.7)"/>
      <use xlink:href="#DejaVuSans-Oblique-61" transform="translate(165.957031 -16.09375) scale(0.7)"/>
      <use xlink:href="#DejaVuSans-Oblique-6e" transform="translate(208.852539 -16.09375) scale(0.7)"/>
      <use xlink:href="#DejaVuSans-Oblique-63" transform="translate(253.217773 -16.09375) scale(0.7)"/>
      <use xlink:href="#DejaVuSans-Oblique-65" transform="translate(291.704102 -16.09375) scale(0.7)"/>
     </g>
    </g>
   </g>
  </g>
  <g id="axes_2">
   <g id="patch_8">
    <path d="M 249.1 160.472 
L 447 160.472 
L 447 50.64 
L 249.1 50.64 
z
" style="fill: #ffffff"/>
   </g>
   <g id="matplotlib.axis_3">
    <g id="xtick_4">
     <g id="line2d_18">
      <g>
       <use xlink:href="#m5835932f82" x="249.1" y="160.472" style="stroke: #000000; stroke-width: 0.8"/>
      </g>
     </g>
     <g id="text_9">
      <!-- 0 -->
      <g transform="translate(245.91875 175.070437) scale(0.1 -0.1)">
       <use xlink:href="#DejaVuSans-30"/>
      </g>
     </g>
    </g>
    <g id="xtick_5">
     <g id="line2d_19">
      <g>
       <use xlink:href="#m5835932f82" x="311.925397" y="160.472" style="stroke: #000000; stroke-width: 0.8"/>
      </g>
     </g>
     <g id="text_10">
      <!-- $t_{1}$ -->
      <g transform="translate(307.575397 175.070437) scale(0.1 -0.1)">
       <use xlink:href="#DejaVuSans-Oblique-74" transform="translate(0 0.78125)"/>
       <use xlink:href="#DejaVuSans-31" transform="translate(39.208984 -15.625) scale(0.7)"/>
      </g>
     </g>
    </g>
    <g id="xtick_6">
     <g id="line2d_20">
      <g>
       <use xlink:href="#m5835932f82" x="406.163492" y="160.472" style="stroke: #000000; stroke-width: 0.8"/>
      </g>
     </g>
     <g id="text_11">
      <!-- $t_{2}$ -->
      <g transform="translate(401.813492 175.070437) scale(0.1 -0.1)">
       <use xlink:href="#DejaVuSans-Oblique-74" transform="translate(0 0.78125)"/>
       <use xlink:href="#DejaVuSans-32" transform="translate(39.208984 -15.625) scale(0.7)"/>
      </g>
     </g>
    </g>
   </g>
   <g id="matplotlib.axis_4">
    <g id="ytick_2">
     <g id="line2d_21">
      <g>
       <use xlink:href="#m269be47ad0" x="249.1" y="160.472" style="stroke: #000000; stroke-width: 0.8"/>
      </g>
     </g>
     <g id="text_12">
      <!-- 0 -->
      <g transform="translate(235.7375 164.271219) scale(0.1 -0.1)">
       <use xlink:href="#DejaVuSans-30"/>
      </g>
     </g>
    </g>
   </g>
   <g id="line2d_22">
    <path d="M 249.1 98.941468 
L 253.565068 103.15911 
L 257.967248 107.013088 
L 262.30654 110.516348 
L 266.520055 113.63717 
L 270.670682 116.440814 
L 274.75842 118.939487 
L 278.846159 121.177674 
L 282.871009 123.126919 
L 286.832971 124.799062 
L 290.732045 126.205755 
L 294.631118 127.37545 
L 298.467304 128.294986 
L 302.303489 128.985107 
L 306.076786 129.440112 
L 309.850083 129.673163 
L 311.925397 129.706734 
L 311.925397 129.706734 
" clip-path="url(#p1b86e78ef6)" style="fill: none; stroke: #ff0000; stroke-width: 1.5; stroke-linecap: square"/>
   </g>
   <g id="line2d_23">
    <path d="M 249.1 160.472 
L 253.565068 156.254358 
L 257.967248 152.40038 
L 262.30654 148.89712 
L 266.520055 145.776298 
L 270.670682 142.972654 
L 274.75842 140.473981 
L 278.846159 138.235794 
L 282.871009 136.286548 
L 286.832971 134.614405 
L 290.732045 133.207713 
L 294.631118 132.038017 
L 298.467304 131.118482 
L 302.303489 130.428361 
L 306.076786 129.973356 
L 309.850083 129.740304 
L 311.925397 129.706734 
L 311.925397 129.706734 
" clip-path="url(#p1b86e78ef6)" style="fill: none; stroke: #0000ff; stroke-width: 1.5; stroke-linecap: square"/>
   </g>
   <g id="line2d_24">
    <path d="M 311.925397 129.706734 
L 343.338095 129.706734 
L 343.338095 129.706734 
" clip-path="url(#p1b86e78ef6)" style="fill: none; stroke: #800080; stroke-width: 1.5; stroke-linecap: square"/>
   </g>
   <g id="line2d_25">
    <path d="M 311.925397 160.472 
L 311.925397 50.64 
" clip-path="url(#p1b86e78ef6)" style="fill: none; stroke-dasharray: 1.5,1.5; stroke-dashoffset: 0; stroke: #000000; stroke-width: 1.5"/>
   </g>
   <g id="line2d_26">
    <path d="M 343.338095 117.400627 
L 347.803163 113.182985 
L 352.205343 109.329007 
L 356.544635 105.825747 
L 360.75815 102.704925 
L 364.908777 99.901281 
L 368.996516 97.402608 
L 373.084254 95.164422 
L 377.109104 93.215176 
L 381.071066 91.543033 
L 384.97014 90.13634 
L 388.869214 88.966645 
L 392.705399 88.04711 
L 396.541584 87.356988 
L 400.314882 86.901983 
L 404.088179 86.668932 
L 406.163492 86.635361 
L 406.163492 86.635361 
" clip-path="url(#p1b86e78ef6)" style="fill: none; stroke: #ff0000; stroke-width: 1.5; stroke-linecap: square"/>
   </g>
   <g id="line2d_27">
    <path d="M 343.338095 55.870095 
L 347.803163 60.087738 
L 352.205343 63.941715 
L 356.544635 67.444976 
L 360.75815 70.565797 
L 364.908777 73.369441 
L 368.996516 75.868115 
L 373.084254 78.106301 
L 377.109104 80.055547 
L 381.071066 81.72769 
L 384.97014 83.134382 
L 388.869214 84.304078 
L 392.705399 85.223613 
L 396.541584 85.913735 
L 400.314882 86.36874 
L 404.088179 86.601791 
L 406.163492 86.635361 
L 406.163492 86.635361 
" clip-path="url(#p1b86e78ef6)" style="fill: none; stroke: #0000ff; stroke-width: 1.5; stroke-linecap: square"/>
   </g>
   <g id="line2d_28">
    <path d="M 406.163492 86.635361 
L 437.57619 86.635361 
L 437.57619 86.635361 
" clip-path="url(#p1b86e78ef6)" style="fill: none; stroke: #800080; stroke-width: 1.5; stroke-linecap: square"/>
   </g>
   <g id="line2d_29">
    <path d="M 406.163492 160.472 
L 406.163492 50.64 
" clip-path="url(#p1b86e78ef6)" style="fill: none; stroke-dasharray: 1.5,1.5; stroke-dashoffset: 0; stroke: #000000; stroke-width: 1.5"/>
   </g>
   <g id="line2d_30">
    <g>
     <use xlink:href="#m8932497b0d" x="447" y="160.472" style="stroke: #000000; stroke-linejoin: miter"/>
    </g>
   </g>
   <g id="line2d_31">
    <g>
     <use xlink:href="#m7e58add8ec" x="249.1" y="50.64" style="stroke: #000000; stroke-linejoin: miter"/>
    </g>
   </g>
   <g id="patch_9">
    <path d="M 249.1 160.472 
L 249.1 50.64 
" style="fill: none; stroke: #000000; stroke-width: 0.8; stroke-linejoin: miter; stroke-linecap: square"/>
   </g>
   <g id="patch_10">
    <path d="M 447 160.472 
L 447 50.64 
" style="fill: none"/>
   </g>
   <g id="patch_11">
    <path d="M 249.1 160.472 
L 447 160.472 
" style="fill: none; stroke: #000000; stroke-width: 0.8; stroke-linejoin: miter; stroke-linecap: square"/>
   </g>
   <g id="patch_12">
    <path d="M 249.1 50.64 
L 447 50.64 
" style="fill: none"/>
   </g>
   <g id="text_13">
    <!-- higher temp, exothermic -->
    <g transform="translate(273.752187 44.64) scale(0.12 -0.12)">
     <defs>
      <path id="DejaVuSans-78" d="M 3513 3500 
L 2247 1797 
L 3578 0 
L 2900 0 
L 1881 1375 
L 863 0 
L 184 0 
L 1544 1831 
L 300 3500 
L 978 3500 
L 1906 2253 
L 2834 3500 
L 3513 3500 
z
" transform="scale(0.015625)"/>
     </defs>
     <use xlink:href="#DejaVuSans-68"/>
     <use xlink:href="#DejaVuSans-69" x="63.378906"/>
     <use xlink:href="#DejaVuSans-67" x="91.162109"/>
     <use xlink:href="#DejaVuSans-68" x="154.638672"/>
     <use xlink:href="#DejaVuSans-65" x="218.017578"/>
     <use xlink:href="#DejaVuSans-72" x="279.541016"/>
     <use xlink:href="#DejaVuSans-20" x="320.654297"/>
     <use xlink:href="#DejaVuSans-74" x="352.441406"/>
     <use xlink:href="#DejaVuSans-65" x="391.650391"/>
     <use xlink:href="#DejaVuSans-6d" x="453.173828"/>
     <use xlink:href="#DejaVuSans-70" x="550.585938"/>
     <use xlink:href="#DejaVuSans-2c" x="614.0625"/>
     <use xlink:href="#DejaVuSans-20" x="645.849609"/>
     <use xlink:href="#DejaVuSans-65" x="677.636719"/>
     <use xlink:href="#DejaVuSans-78" x="737.410156"/>
     <use xlink:href="#DejaVuSans-6f" x="793.464844"/>
     <use xlink:href="#DejaVuSans-74" x="854.646484"/>
     <use xlink:href="#DejaVuSans-68" x="893.855469"/>
     <use xlink:href="#DejaVuSans-65" x="957.234375"/>
     <use xlink:href="#DejaVuSans-72" x="1018.757812"/>
     <use xlink:href="#DejaVuSans-6d" x="1058.121094"/>
     <use xlink:href="#DejaVuSans-69" x="1155.533203"/>
     <use xlink:href="#DejaVuSans-63" x="1183.316406"/>
    </g>
   </g>
  </g>
  <g id="axes_3">
   <g id="patch_13">
    <path d="M 24.1 315.992 
L 222 315.992 
L 222 206.16 
L 24.1 206.16 
z
" style="fill: #ffffff"/>
   </g>
   <g id="matplotlib.axis_5">
    <g id="xtick_7">
     <g id="line2d_32">
      <g>
       <use xlink:href="#m5835932f82" x="24.1" y="315.992" style="stroke: #000000; stroke-width: 0.8"/>
      </g>
     </g>
     <g id="text_14">
      <!-- 0 -->
      <g transform="translate(20.91875 330.590437) scale(0.1 -0.1)">
       <use xlink:href="#DejaVuSans-30"/>
      </g>
     </g>
    </g>
    <g id="xtick_8">
     <g id="line2d_33">
      <g>
       <use xlink:href="#m5835932f82" x="86.925397" y="315.992" style="stroke: #000000; stroke-width: 0.8"/>
      </g>
     </g>
     <g id="text_15">
      <!-- $t_{1}$ -->
      <g transform="translate(82.575397 330.590437) scale(0.1 -0.1)">
       <use xlink:href="#DejaVuSans-Oblique-74" transform="translate(0 0.78125)"/>
       <use xlink:href="#DejaVuSans-31" transform="translate(39.208984 -15.625) scale(0.7)"/>
      </g>
     </g>
    </g>
    <g id="xtick_9">
     <g id="line2d_34">
      <g>
       <use xlink:href="#m5835932f82" x="181.163492" y="315.992" style="stroke: #000000; stroke-width: 0.8"/>
      </g>
     </g>
     <g id="text_16">
      <!-- $t_{2}$ -->
      <g transform="translate(176.813492 330.590437) scale(0.1 -0.1)">
       <use xlink:href="#DejaVuSans-Oblique-74" transform="translate(0 0.78125)"/>
       <use xlink:href="#DejaVuSans-32" transform="translate(39.208984 -15.625) scale(0.7)"/>
      </g>
     </g>
    </g>
   </g>
   <g id="matplotlib.axis_6">
    <g id="ytick_3">
     <g id="line2d_35">
      <g>
       <use xlink:href="#m269be47ad0" x="24.1" y="315.992" style="stroke: #000000; stroke-width: 0.8"/>
      </g>
     </g>
     <g id="text_17">
      <!-- 0 -->
      <g transform="translate(10.7375 319.791219) scale(0.1 -0.1)">
       <use xlink:href="#DejaVuSans-30"/>
      </g>
     </g>
    </g>
   </g>
   <g id="line2d_36">
    <path d="M 24.1 211.390095 
L 28.12485 217.876665 
L 32.086812 223.842583 
L 35.922998 229.222711 
L 39.696295 234.134174 
L 43.343815 238.523257 
L 46.928447 242.493147 
L 50.450191 246.061766 
L 53.846159 249.191645 
L 57.179238 251.96637 
L 60.449429 254.402607 
L 63.656731 256.516706 
L 66.801146 258.324703 
L 69.882672 259.84232 
L 72.901309 261.084964 
L 75.919947 262.086123 
L 78.875696 262.832432 
L 81.831446 263.347214 
L 84.724307 263.626851 
L 86.925397 263.691048 
L 86.925397 263.691048 
" clip-path="url(#p152775fb00)" style="fill: none; stroke: #ff0000; stroke-width: 1.5; stroke-linecap: square"/>
   </g>
   <g id="line2d_37">
    <path d="M 24.1 315.992 
L 28.12485 309.505431 
L 32.086812 303.539512 
L 35.922998 298.159385 
L 39.696295 293.247921 
L 43.343815 288.858838 
L 46.928447 284.888948 
L 50.450191 281.320329 
L 53.846159 278.19045 
L 57.179238 275.415725 
L 60.449429 272.979488 
L 63.656731 270.86539 
L 66.801146 269.057392 
L 69.882672 267.539775 
L 72.901309 266.297131 
L 75.919947 265.295973 
L 78.875696 264.549663 
L 81.831446 264.034881 
L 84.724307 263.755245 
L 86.925397 263.691048 
L 86.925397 263.691048 
" clip-path="url(#p152775fb00)" style="fill: none; stroke: #0000ff; stroke-width: 1.5; stroke-linecap: square"/>
   </g>
   <g id="line2d_38">
    <path d="M 86.925397 263.691048 
L 118.338095 263.691048 
L 118.338095 263.691048 
" clip-path="url(#p152775fb00)" style="fill: none; stroke: #800080; stroke-width: 1.5; stroke-linecap: square"/>
   </g>
   <g id="line2d_39">
    <path d="M 86.925397 315.992 
L 86.925397 206.16 
" clip-path="url(#p152775fb00)" style="fill: none; stroke-dasharray: 1.5,1.5; stroke-dashoffset: 0; stroke: #000000; stroke-width: 1.5"/>
   </g>
   <g id="line2d_40">
    <path d="M 118.338095 268.921143 
L 123.935153 271.592278 
L 129.469322 273.988518 
L 134.940603 276.118166 
L 140.411883 278.009818 
L 145.820276 279.64582 
L 151.228668 281.049266 
L 156.574173 282.207877 
L 161.919677 283.13931 
L 167.265181 283.843564 
L 172.547797 284.316348 
L 177.830413 284.567266 
L 181.163492 284.611429 
L 181.163492 284.611429 
" clip-path="url(#p152775fb00)" style="fill: none; stroke: #ff0000; stroke-width: 1.5; stroke-linecap: square"/>
   </g>
   <g id="line2d_41">
    <path d="M 118.338095 300.301714 
L 123.935153 297.630579 
L 129.469322 295.234339 
L 134.940603 293.104691 
L 140.411883 291.213039 
L 145.820276 289.577037 
L 151.228668 288.173592 
L 156.574173 287.01498 
L 161.919677 286.083547 
L 167.265181 285.379293 
L 172.547797 284.906509 
L 177.830413 284.655591 
L 181.163492 284.611429 
L 181.163492 284.611429 
" clip-path="url(#p152775fb00)" style="fill: none; stroke: #0000ff; stroke-width: 1.5; stroke-linecap: square"/>
   </g>
   <g id="line2d_42">
    <path d="M 181.163492 284.611429 
L 212.57619 284.611429 
L 212.57619 284.611429 
" clip-path="url(#p152775fb00)" style="fill: none; stroke: #800080; stroke-width: 1.5; stroke-linecap: square"/>
   </g>
   <g id="line2d_43">
    <path d="M 181.163492 315.992 
L 181.163492 206.16 
" clip-path="url(#p152775fb00)" style="fill: none; stroke-dasharray: 1.5,1.5; stroke-dashoffset: 0; stroke: #000000; stroke-width: 1.5"/>
   </g>
   <g id="line2d_44">
    <g>
     <use xlink:href="#m8932497b0d" x="222" y="315.992" style="stroke: #000000; stroke-linejoin: miter"/>
    </g>
   </g>
   <g id="line2d_45">
    <g>
     <use xlink:href="#m7e58add8ec" x="24.1" y="206.16" style="stroke: #000000; stroke-linejoin: miter"/>
    </g>
   </g>
   <g id="patch_14">
    <path d="M 24.1 315.992 
L 24.1 206.16 
" style="fill: none; stroke: #000000; stroke-width: 0.8; stroke-linejoin: miter; stroke-linecap: square"/>
   </g>
   <g id="patch_15">
    <path d="M 222 315.992 
L 222 206.16 
" style="fill: none"/>
   </g>
   <g id="patch_16">
    <path d="M 24.1 315.992 
L 222 315.992 
" style="fill: none; stroke: #000000; stroke-width: 0.8; stroke-linejoin: miter; stroke-linecap: square"/>
   </g>
   <g id="patch_17">
    <path d="M 24.1 206.16 
L 222 206.16 
" style="fill: none"/>
   </g>
   <g id="text_18">
    <!-- lower temp, endothermic -->
    <g transform="translate(47.235312 200.16) scale(0.12 -0.12)">
     <defs>
      <path id="DejaVuSans-6c" d="M 603 4863 
L 1178 4863 
L 1178 0 
L 603 0 
L 603 4863 
z
" transform="scale(0.015625)"/>
      <path id="DejaVuSans-77" d="M 269 3500 
L 844 3500 
L 1563 769 
L 2278 3500 
L 2956 3500 
L 3675 769 
L 4391 3500 
L 4966 3500 
L 4050 0 
L 3372 0 
L 2619 2869 
L 1863 0 
L 1184 0 
L 269 3500 
z
" transform="scale(0.015625)"/>
     </defs>
     <use xlink:href="#DejaVuSans-6c"/>
     <use xlink:href="#DejaVuSans-6f" x="27.783203"/>
     <use xlink:href="#DejaVuSans-77" x="88.964844"/>
     <use xlink:href="#DejaVuSans-65" x="170.751953"/>
     <use xlink:href="#DejaVuSans-72" x="232.275391"/>
     <use xlink:href="#DejaVuSans-20" x="273.388672"/>
     <use xlink:href="#DejaVuSans-74" x="305.175781"/>
     <use xlink:href="#DejaVuSans-65" x="344.384766"/>
     <use xlink:href="#DejaVuSans-6d" x="405.908203"/>
     <use xlink:href="#DejaVuSans-70" x="503.320312"/>
     <use xlink:href="#DejaVuSans-2c" x="566.796875"/>
     <use xlink:href="#DejaVuSans-20" x="598.583984"/>
     <use xlink:href="#DejaVuSans-65" x="630.371094"/>
     <use xlink:href="#DejaVuSans-6e" x="691.894531"/>
     <use xlink:href="#DejaVuSans-64" x="755.273438"/>
     <use xlink:href="#DejaVuSans-6f" x="818.75"/>
     <use xlink:href="#DejaVuSans-74" x="879.931641"/>
     <use xlink:href="#DejaVuSans-68" x="919.140625"/>
     <use xlink:href="#DejaVuSans-65" x="982.519531"/>
     <use xlink:href="#DejaVuSans-72" x="1044.042969"/>
     <use xlink:href="#DejaVuSans-6d" x="1083.40625"/>
     <use xlink:href="#DejaVuSans-69" x="1180.818359"/>
     <use xlink:href="#DejaVuSans-63" x="1208.601562"/>
    </g>
   </g>
  </g>
  <g id="axes_4">
   <g id="patch_18">
    <path d="M 249.1 315.992 
L 447 315.992 
L 447 206.16 
L 249.1 206.16 
z
" style="fill: #ffffff"/>
   </g>
   <g id="matplotlib.axis_7">
    <g id="xtick_10">
     <g id="line2d_46">
      <g>
       <use xlink:href="#m5835932f82" x="249.1" y="315.992" style="stroke: #000000; stroke-width: 0.8"/>
      </g>
     </g>
     <g id="text_19">
      <!-- 0 -->
      <g transform="translate(245.91875 330.590437) scale(0.1 -0.1)">
       <use xlink:href="#DejaVuSans-30"/>
      </g>
     </g>
    </g>
    <g id="xtick_11">
     <g id="line2d_47">
      <g>
       <use xlink:href="#m5835932f82" x="311.925397" y="315.992" style="stroke: #000000; stroke-width: 0.8"/>
      </g>
     </g>
     <g id="text_20">
      <!-- $t_{1}$ -->
      <g transform="translate(307.575397 330.590437) scale(0.1 -0.1)">
       <use xlink:href="#DejaVuSans-Oblique-74" transform="translate(0 0.78125)"/>
       <use xlink:href="#DejaVuSans-31" transform="translate(39.208984 -15.625) scale(0.7)"/>
      </g>
     </g>
    </g>
    <g id="xtick_12">
     <g id="line2d_48">
      <g>
       <use xlink:href="#m5835932f82" x="406.163492" y="315.992" style="stroke: #000000; stroke-width: 0.8"/>
      </g>
     </g>
     <g id="text_21">
      <!-- $t_{2}$ -->
      <g transform="translate(401.813492 330.590437) scale(0.1 -0.1)">
       <use xlink:href="#DejaVuSans-Oblique-74" transform="translate(0 0.78125)"/>
       <use xlink:href="#DejaVuSans-32" transform="translate(39.208984 -15.625) scale(0.7)"/>
      </g>
     </g>
    </g>
   </g>
   <g id="matplotlib.axis_8">
    <g id="ytick_4">
     <g id="line2d_49">
      <g>
       <use xlink:href="#m269be47ad0" x="249.1" y="315.992" style="stroke: #000000; stroke-width: 0.8"/>
      </g>
     </g>
     <g id="text_22">
      <!-- 0 -->
      <g transform="translate(235.7375 319.791219) scale(0.1 -0.1)">
       <use xlink:href="#DejaVuSans-30"/>
      </g>
     </g>
    </g>
   </g>
   <g id="line2d_50">
    <path d="M 249.1 211.390095 
L 253.12485 217.876665 
L 257.086812 223.842583 
L 260.922998 229.222711 
L 264.696295 234.134174 
L 268.343815 238.523257 
L 271.928447 242.493147 
L 275.450191 246.061766 
L 278.846159 249.191645 
L 282.179238 251.96637 
L 285.449429 254.402607 
L 288.656731 256.516706 
L 291.801146 258.324703 
L 294.882672 259.84232 
L 297.901309 261.084964 
L 300.919947 262.086123 
L 303.875696 262.832432 
L 306.831446 263.347214 
L 309.724307 263.626851 
L 311.925397 263.691048 
L 311.925397 263.691048 
" clip-path="url(#paac28d735c)" style="fill: none; stroke: #ff0000; stroke-width: 1.5; stroke-linecap: square"/>
   </g>
   <g id="line2d_51">
    <path d="M 249.1 315.992 
L 253.12485 309.505431 
L 257.086812 303.539512 
L 260.922998 298.159385 
L 264.696295 293.247921 
L 268.343815 288.858838 
L 271.928447 284.888948 
L 275.450191 281.320329 
L 278.846159 278.19045 
L 282.179238 275.415725 
L 285.449429 272.979488 
L 288.656731 270.86539 
L 291.801146 269.057392 
L 294.882672 267.539775 
L 297.901309 266.297131 
L 300.919947 265.295973 
L 303.875696 264.549663 
L 306.831446 264.034881 
L 309.724307 263.755245 
L 311.925397 263.691048 
L 311.925397 263.691048 
" clip-path="url(#paac28d735c)" style="fill: none; stroke: #0000ff; stroke-width: 1.5; stroke-linecap: square"/>
   </g>
   <g id="line2d_52">
    <path d="M 311.925397 263.691048 
L 343.338095 263.691048 
L 343.338095 263.691048 
" clip-path="url(#paac28d735c)" style="fill: none; stroke: #800080; stroke-width: 1.5; stroke-linecap: square"/>
   </g>
   <g id="line2d_53">
    <path d="M 311.925397 315.992 
L 311.925397 206.16 
" clip-path="url(#paac28d735c)" style="fill: none; stroke-dasharray: 1.5,1.5; stroke-dashoffset: 0; stroke: #000000; stroke-width: 1.5"/>
   </g>
   <g id="line2d_54">
    <path d="M 343.338095 300.301714 
L 348.935153 297.630579 
L 354.469322 295.234339 
L 359.940603 293.104691 
L 365.411883 291.213039 
L 370.820276 289.577037 
L 376.228668 288.173592 
L 381.574173 287.01498 
L 386.919677 286.083547 
L 392.265181 285.379293 
L 397.547797 284.906509 
L 402.830413 284.655591 
L 406.163492 284.611429 
L 406.163492 284.611429 
" clip-path="url(#paac28d735c)" style="fill: none; stroke: #ff0000; stroke-width: 1.5; stroke-linecap: square"/>
   </g>
   <g id="line2d_55">
    <path d="M 343.338095 268.921143 
L 348.935153 271.592278 
L 354.469322 273.988518 
L 359.940603 276.118166 
L 365.411883 278.009818 
L 370.820276 279.64582 
L 376.228668 281.049266 
L 381.574173 282.207877 
L 386.919677 283.13931 
L 392.265181 283.843564 
L 397.547797 284.316348 
L 402.830413 284.567266 
L 406.163492 284.611429 
L 406.163492 284.611429 
" clip-path="url(#paac28d735c)" style="fill: none; stroke: #0000ff; stroke-width: 1.5; stroke-linecap: square"/>
   </g>
   <g id="line2d_56">
    <path d="M 406.163492 284.611429 
L 437.57619 284.611429 
L 437.57619 284.611429 
" clip-path="url(#paac28d735c)" style="fill: none; stroke: #800080; stroke-width: 1.5; stroke-linecap: square"/>
   </g>
   <g id="line2d_57">
    <path d="M 406.163492 315.992 
L 406.163492 206.16 
" clip-path="url(#paac28d735c)" style="fill: none; stroke-dasharray: 1.5,1.5; stroke-dashoffset: 0; stroke: #000000; stroke-width: 1.5"/>
   </g>
   <g id="line2d_58">
    <g>
     <use xlink:href="#m8932497b0d" x="447" y="315.992" style="stroke: #000000; stroke-linejoin: miter"/>
    </g>
   </g>
   <g id="line2d_59">
    <g>
     <use xlink:href="#m7e58add8ec" x="249.1" y="206.16" style="stroke: #000000; stroke-linejoin: miter"/>
    </g>
   </g>
   <g id="patch_19">
    <path d="M 249.1 315.992 
L 249.1 206.16 
" style="fill: none; stroke: #000000; stroke-width: 0.8; stroke-linejoin: miter; stroke-linecap: square"/>
   </g>
   <g id="patch_20">
    <path d="M 447 315.992 
L 447 206.16 
" style="fill: none"/>
   </g>
   <g id="patch_21">
    <path d="M 249.1 315.992 
L 447 315.992 
" style="fill: none; stroke: #000000; stroke-width: 0.8; stroke-linejoin: miter; stroke-linecap: square"/>
   </g>
   <g id="patch_22">
    <path d="M 249.1 206.16 
L 447 206.16 
" style="fill: none"/>
   </g>
   <g id="text_23">
    <!-- lower temp, exothermic -->
    <g transform="translate(276.588125 200.16) scale(0.12 -0.12)">
     <use xlink:href="#DejaVuSans-6c"/>
     <use xlink:href="#DejaVuSans-6f" x="27.783203"/>
     <use xlink:href="#DejaVuSans-77" x="88.964844"/>
     <use xlink:href="#DejaVuSans-65" x="170.751953"/>
     <use xlink:href="#DejaVuSans-72" x="232.275391"/>
     <use xlink:href="#DejaVuSans-20" x="273.388672"/>
     <use xlink:href="#DejaVuSans-74" x="305.175781"/>
     <use xlink:href="#DejaVuSans-65" x="344.384766"/>
     <use xlink:href="#DejaVuSans-6d" x="405.908203"/>
     <use xlink:href="#DejaVuSans-70" x="503.320312"/>
     <use xlink:href="#DejaVuSans-2c" x="566.796875"/>
     <use xlink:href="#DejaVuSans-20" x="598.583984"/>
     <use xlink:href="#DejaVuSans-65" x="630.371094"/>
     <use xlink:href="#DejaVuSans-78" x="690.144531"/>
     <use xlink:href="#DejaVuSans-6f" x="746.199219"/>
     <use xlink:href="#DejaVuSans-74" x="807.380859"/>
     <use xlink:href="#DejaVuSans-68" x="846.589844"/>
     <use xlink:href="#DejaVuSans-65" x="909.96875"/>
     <use xlink:href="#DejaVuSans-72" x="971.492188"/>
     <use xlink:href="#DejaVuSans-6d" x="1010.855469"/>
     <use xlink:href="#DejaVuSans-69" x="1108.267578"/>
     <use xlink:href="#DejaVuSans-63" x="1136.050781"/>
    </g>
   </g>
  </g>
  <g id="text_24">
   <!-- balance move (temperature) -->
   <g transform="translate(143.811563 16.030125) scale(0.12 -0.12)">
    <defs>
     <path id="DejaVuSans-62" d="M 3116 1747 
Q 3116 2381 2855 2742 
Q 2594 3103 2138 3103 
Q 1681 3103 1420 2742 
Q 1159 2381 1159 1747 
Q 1159 1113 1420 752 
Q 1681 391 2138 391 
Q 2594 391 2855 752 
Q 3116 1113 3116 1747 
z
M 1159 2969 
Q 1341 3281 1617 3432 
Q 1894 3584 2278 3584 
Q 2916 3584 3314 3078 
Q 3713 2572 3713 1747 
Q 3713 922 3314 415 
Q 2916 -91 2278 -91 
Q 1894 -91 1617 61 
Q 1341 213 1159 525 
L 1159 0 
L 581 0 
L 581 4863 
L 1159 4863 
L 1159 2969 
z
" transform="scale(0.015625)"/>
     <path id="DejaVuSans-61" d="M 2194 1759 
Q 1497 1759 1228 1600 
Q 959 1441 959 1056 
Q 959 750 1161 570 
Q 1363 391 1709 391 
Q 2188 391 2477 730 
Q 2766 1069 2766 1631 
L 2766 1759 
L 2194 1759 
z
M 3341 1997 
L 3341 0 
L 2766 0 
L 2766 531 
Q 2569 213 2275 61 
Q 1981 -91 1556 -91 
Q 1019 -91 701 211 
Q 384 513 384 1019 
Q 384 1609 779 1909 
Q 1175 2209 1959 2209 
L 2766 2209 
L 2766 2266 
Q 2766 2663 2505 2880 
Q 2244 3097 1772 3097 
Q 1472 3097 1187 3025 
Q 903 2953 641 2809 
L 641 3341 
Q 956 3463 1253 3523 
Q 1550 3584 1831 3584 
Q 2591 3584 2966 3190 
Q 3341 2797 3341 1997 
z
" transform="scale(0.015625)"/>
     <path id="DejaVuSans-76" d="M 191 3500 
L 800 3500 
L 1894 563 
L 2988 3500 
L 3597 3500 
L 2284 0 
L 1503 0 
L 191 3500 
z
" transform="scale(0.015625)"/>
     <path id="DejaVuSans-28" d="M 1984 4856 
Q 1566 4138 1362 3434 
Q 1159 2731 1159 2009 
Q 1159 1288 1364 580 
Q 1569 -128 1984 -844 
L 1484 -844 
Q 1016 -109 783 600 
Q 550 1309 550 2009 
Q 550 2706 781 3412 
Q 1013 4119 1484 4856 
L 1984 4856 
z
" transform="scale(0.015625)"/>
     <path id="DejaVuSans-75" d="M 544 1381 
L 544 3500 
L 1119 3500 
L 1119 1403 
Q 1119 906 1312 657 
Q 1506 409 1894 409 
Q 2359 409 2629 706 
Q 2900 1003 2900 1516 
L 2900 3500 
L 3475 3500 
L 3475 0 
L 2900 0 
L 2900 538 
Q 2691 219 2414 64 
Q 2138 -91 1772 -91 
Q 1169 -91 856 284 
Q 544 659 544 1381 
z
M 1991 3584 
L 1991 3584 
z
" transform="scale(0.015625)"/>
     <path id="DejaVuSans-29" d="M 513 4856 
L 1013 4856 
Q 1481 4119 1714 3412 
Q 1947 2706 1947 2009 
Q 1947 1309 1714 600 
Q 1481 -109 1013 -844 
L 513 -844 
Q 928 -128 1133 580 
Q 1338 1288 1338 2009 
Q 1338 2731 1133 3434 
Q 928 4138 513 4856 
z
" transform="scale(0.015625)"/>
    </defs>
    <use xlink:href="#DejaVuSans-62"/>
    <use xlink:href="#DejaVuSans-61" x="63.476562"/>
    <use xlink:href="#DejaVuSans-6c" x="124.755859"/>
    <use xlink:href="#DejaVuSans-61" x="152.539062"/>
    <use xlink:href="#DejaVuSans-6e" x="213.818359"/>
    <use xlink:href="#DejaVuSans-63" x="277.197266"/>
    <use xlink:href="#DejaVuSans-65" x="332.177734"/>
    <use xlink:href="#DejaVuSans-20" x="393.701172"/>
    <use xlink:href="#DejaVuSans-6d" x="425.488281"/>
    <use xlink:href="#DejaVuSans-6f" x="522.900391"/>
    <use xlink:href="#DejaVuSans-76" x="584.082031"/>
    <use xlink:href="#DejaVuSans-65" x="643.261719"/>
    <use xlink:href="#DejaVuSans-20" x="704.785156"/>
    <use xlink:href="#DejaVuSans-28" x="736.572266"/>
    <use xlink:href="#DejaVuSans-74" x="775.585938"/>
    <use xlink:href="#DejaVuSans-65" x="814.794922"/>
    <use xlink:href="#DejaVuSans-6d" x="876.318359"/>
    <use xlink:href="#DejaVuSans-70" x="973.730469"/>
    <use xlink:href="#DejaVuSans-65" x="1037.207031"/>
    <use xlink:href="#DejaVuSans-72" x="1098.730469"/>
    <use xlink:href="#DejaVuSans-61" x="1139.84375"/>
    <use xlink:href="#DejaVuSans-74" x="1201.123047"/>
    <use xlink:href="#DejaVuSans-75" x="1240.332031"/>
    <use xlink:href="#DejaVuSans-72" x="1303.710938"/>
    <use xlink:href="#DejaVuSans-65" x="1342.574219"/>
    <use xlink:href="#DejaVuSans-29" x="1404.097656"/>
   </g>
  </g>
 </g>
 <defs>
  <clipPath id="pceaa025360">
   <rect x="24.1" y="50.64" width="197.9" height="109.832"/>
  </clipPath>
  <clipPath id="p1b86e78ef6">
   <rect x="249.1" y="50.64" width="197.9" height="109.832"/>
  </clipPath>
  <clipPath id="p152775fb00">
   <rect x="24.1" y="206.16" width="197.9" height="109.832"/>
  </clipPath>
  <clipPath id="paac28d735c">
   <rect x="249.1" y="206.16" width="197.9" height="109.832"/>
  </clipPath>
 </defs>
</svg>
